<svg xmlns="http://www.w3.org/2000/svg" width="348" height="294" viewBox="0 0 348 294">
  <g id="plan" transform="translate(416 -3856)">
    <path id="パス_59" data-name="パス 59" d="M0,0H114V44H0Z" transform="translate(-416 3856)" fill="#008485"/>
    <path id="パス_60" data-name="パス 60" d="M0,0H114V44H0Z" transform="translate(-416 3856)" fill="#008485"/>
    <path id="パス_61" data-name="パス 61" d="M0,0H114V44H0Z" transform="translate(-416 3903)" fill="#fff"/>
    <path id="パス_62" data-name="パス 62" d="M0,0H114V200H0Z" transform="translate(-416 3950)" fill="#fff"/>
    <path id="パス_48" data-name="パス 48" d="M0,0H114V44H0Z" transform="translate(-299 3856)" fill="#98774b"/>
    <path id="パス_49" data-name="パス 49" d="M0,0H114V44H0Z" transform="translate(-299 3856)" fill="#98774b"/>
    <path id="パス_50" data-name="パス 50" d="M0,0H114V44H0Z" transform="translate(-299 3903)" fill="#fff"/>
    <path id="パス_51" data-name="パス 51" d="M0,0H114V200H0Z" transform="translate(-299 3950)" fill="#fff"/>
    <path id="パス_45" data-name="パス 45" d="M0,0H114V44H0Z" transform="translate(-182 3856)" fill="#c4b850"/>
    <path id="パス_46" data-name="パス 46" d="M0,0H114V44H0Z" transform="translate(-182 3856)" fill="#c4b850"/>
    <path id="パス_47" data-name="パス 47" d="M0,0H114V44H0Z" transform="translate(-182 3903)" fill="#fff"/>
    <path id="パス_52" data-name="パス 52" d="M0,0H114V200H0Z" transform="translate(-182 3950)" fill="#fff"/>
    <path id="パス_65" data-name="パス 65" d="M-27.784,0h6.072c3.749,0,6.6-1.587,6.6-5.014a3.87,3.87,0,0,0-3.2-4.025v-.115a3.861,3.861,0,0,0,2.323-3.68c0-3.174-2.668-4.209-6.164-4.209h-5.635Zm3.4-10.1v-4.324h2.024c2.047,0,3.059.6,3.059,2.093,0,1.357-.943,2.231-3.1,2.231Zm0,7.475V-7.59h2.369c2.346,0,3.588.713,3.588,2.369,0,1.771-1.265,2.6-3.588,2.6ZM-9.223.322a6.056,6.056,0,0,0,3.887-1.7h.092L-5.014,0h2.76V-7.521c0-3.726-1.679-5.681-4.945-5.681a10.289,10.289,0,0,0-5.382,1.7l1.219,2.231A7.277,7.277,0,0,1-7.82-10.488c1.587,0,2.139.966,2.208,2.231-5.2.552-7.429,2-7.429,4.761A3.659,3.659,0,0,0-9.223.322Zm1.1-2.645c-.989,0-1.7-.437-1.7-1.449,0-1.15,1.058-2.024,4.209-2.415v2.6A3.5,3.5,0,0,1-8.119-2.323Zm13,2.645c3.358,0,5.129-1.817,5.129-4.071,0-2.392-1.886-3.243-3.588-3.887C5.06-8.142,3.864-8.487,3.864-9.43c0-.736.552-1.242,1.725-1.242a4.8,4.8,0,0,1,2.76,1.1l1.518-2.047A7.139,7.139,0,0,0,5.5-13.2C2.553-13.2.69-11.569.69-9.269.69-7.107,2.507-6.118,4.14-5.5c1.357.529,2.691.966,2.691,1.932,0,.8-.575,1.357-1.863,1.357a5.592,5.592,0,0,1-3.45-1.4L-.023-1.5A8.17,8.17,0,0,0,4.876.322ZM12.581,0h3.381V-12.88H12.581Zm1.7-14.95a1.812,1.812,0,0,0,1.955-1.863,1.807,1.807,0,0,0-1.955-1.84,1.814,1.814,0,0,0-1.978,1.84A1.819,1.819,0,0,0,14.283-14.95ZM25.047.322a6.491,6.491,0,0,0,4.232-1.564L27.922-3.473a4,4,0,0,1-2.507,1.035c-1.84,0-3.2-1.564-3.2-4,0-2.415,1.334-4,3.312-4a2.932,2.932,0,0,1,1.955.851l1.61-2.185A5.631,5.631,0,0,0,25.346-13.2,6.425,6.425,0,0,0,18.768-6.44C18.768-2.162,21.482.322,25.047.322Z" transform="translate(-359 3886)" fill="#fff"/>
    <path id="パス_53" data-name="パス 53" d="M-17.652,0h3.4V-6.049h2.277c3.657,0,6.578-1.748,6.578-5.635,0-4.025-2.9-5.359-6.67-5.359h-5.589Zm3.4-8.74v-5.589h1.932c2.346,0,3.588.667,3.588,2.645,0,1.955-1.127,2.944-3.473,2.944ZM-2.587,0H.794V-7.682c.713-1.863,1.932-2.53,2.944-2.53a4.3,4.3,0,0,1,1.357.207l.575-2.921A3.644,3.644,0,0,0,4.152-13.2,4.462,4.462,0,0,0,.495-10.6H.426L.173-12.88h-2.76ZM12.547.322c3.22,0,6.187-2.484,6.187-6.762S15.767-13.2,12.547-13.2,6.359-10.718,6.359-6.44,9.326.322,12.547.322Zm0-2.76c-1.748,0-2.737-1.564-2.737-4,0-2.415.989-4,2.737-4s2.737,1.587,2.737,4C15.283-4,14.295-2.438,12.547-2.438Z" transform="translate(-242 3886)" fill="#fff"/>
    <path id="パス_54" data-name="パス 54" d="M-16.019.322c3.933,0,6.256-2.369,6.256-5.152,0-2.461-1.357-3.772-3.427-4.623l-2.231-.943c-1.449-.575-2.645-1.012-2.645-2.231,0-1.127.943-1.794,2.438-1.794a5.429,5.429,0,0,1,3.611,1.4l1.725-2.139a7.553,7.553,0,0,0-5.336-2.185c-3.45,0-5.888,2.139-5.888,4.922a4.931,4.931,0,0,0,3.45,4.577l2.277.966c1.518.644,2.553,1.035,2.553,2.3,0,1.2-.943,1.955-2.714,1.955a6.7,6.7,0,0,1-4.324-1.886l-1.955,2.346A9.07,9.07,0,0,0-16.019.322Zm12.995,0A8.324,8.324,0,0,0-.31-.161L-.862-2.622a3.763,3.763,0,0,1-1.265.276c-1.15,0-1.748-.69-1.748-2.162v-5.7H-.7V-12.88H-3.875v-3.473H-6.681l-.391,3.473-2,.161v2.507h1.817v5.7C-7.256-1.633-6.083.322-3.024.322Zm7.59,0a6.056,6.056,0,0,0,3.887-1.7h.092L8.775,0h2.76V-7.521c0-3.726-1.679-5.681-4.945-5.681a10.289,10.289,0,0,0-5.382,1.7L2.427-9.269a7.277,7.277,0,0,1,3.542-1.219c1.587,0,2.139.966,2.208,2.231-5.2.552-7.429,2-7.429,4.761A3.659,3.659,0,0,0,4.566.322Zm1.1-2.645c-.989,0-1.7-.437-1.7-1.449,0-1.15,1.058-2.024,4.209-2.415v2.6A3.5,3.5,0,0,1,5.67-2.323ZM14.984,0h3.381V-7.682c.713-1.863,1.932-2.53,2.944-2.53a4.3,4.3,0,0,1,1.357.207l.575-2.921a3.644,3.644,0,0,0-1.518-.276,4.462,4.462,0,0,0-3.657,2.6H18l-.253-2.277h-2.76Z" transform="translate(-125 3886)" fill="#fff"/>
    <path id="パス_63" data-name="パス 63" d="M-40.689,0h2.358V-2.5h2.61V-3.834h-2.61v-.81h2.61V-5.976h-2l3.33-6.876h-2.5l-2.61,5.8-2.61-5.8h-2.5l3.33,6.876h-2v1.332h2.592v.81h-2.592V-2.5h2.592Zm9.954,0h2.358V-12.852h-1.566l-3.582,1.494.738,1.8,2.052-.864Zm6.7-4.734a6.059,6.059,0,0,0,.7,3.42A3.452,3.452,0,0,0-20.1.18,3.494,3.494,0,0,0-17.019-1.1c.612-.774.864-1.818.864-3.636V-8.118a6.1,6.1,0,0,0-.7-3.42,3.452,3.452,0,0,0-3.24-1.494,3.494,3.494,0,0,0-3.078,1.278c-.612.774-.864,1.818-.864,3.636Zm5.562-.216c0,2.394-.414,3.222-1.62,3.222s-1.62-.846-1.62-3.222V-7.9c0-2.376.432-3.222,1.62-3.222,1.206,0,1.62.828,1.62,3.222ZM-14.5,3.384h2.016l1.332-5.652h-2.484Zm5.4-8.118a6.059,6.059,0,0,0,.7,3.42A3.452,3.452,0,0,0-5.157.18,3.494,3.494,0,0,0-2.079-1.1c.612-.774.864-1.818.864-3.636V-8.118a6.1,6.1,0,0,0-.7-3.42,3.452,3.452,0,0,0-3.24-1.494,3.494,3.494,0,0,0-3.078,1.278c-.612.774-.864,1.818-.864,3.636Zm5.562-.216c0,2.394-.414,3.222-1.62,3.222s-1.62-.846-1.62-3.222V-7.9c0-2.376.432-3.222,1.62-3.222,1.206,0,1.62.828,1.62,3.222Zm4.158.216a6.059,6.059,0,0,0,.7,3.42A3.452,3.452,0,0,0,4.563.18,3.494,3.494,0,0,0,7.641-1.1c.612-.774.864-1.818.864-3.636V-8.118a6.1,6.1,0,0,0-.7-3.42,3.452,3.452,0,0,0-3.24-1.494,3.494,3.494,0,0,0-3.078,1.278C.873-10.98.621-9.936.621-8.118ZM6.183-4.95c0,2.394-.414,3.222-1.62,3.222s-1.62-.846-1.62-3.222V-7.9c0-2.376.432-3.222,1.62-3.222,1.206,0,1.62.828,1.62,3.222Zm4.158.216a6.059,6.059,0,0,0,.7,3.42A3.452,3.452,0,0,0,14.283.18,3.494,3.494,0,0,0,17.361-1.1c.612-.774.864-1.818.864-3.636V-8.118a6.1,6.1,0,0,0-.7-3.42,3.452,3.452,0,0,0-3.24-1.494A3.494,3.494,0,0,0,11.2-11.754c-.612.774-.864,1.818-.864,3.636ZM15.9-4.95c0,2.394-.414,3.222-1.62,3.222s-1.62-.846-1.62-3.222V-7.9c0-2.376.432-3.222,1.62-3.222,1.206,0,1.62.828,1.62,3.222ZM19.521.36h2.214l4.3-13.572H23.823ZM35.995-.809q.949.088,2.048.088a.559.559,0,0,0,.633-.633V-4.5H32.242a10.146,10.146,0,0,1-.949,3.278,11.756,11.756,0,0,1-1.635,2.3q-.281.308-.378.308-.132,0-.422-.29A3.8,3.8,0,0,0,27.566.255a10.057,10.057,0,0,0,1.828-2.162,7.689,7.689,0,0,0,.9-2.725,29.067,29.067,0,0,0,.246-4.324V-11.61L30.5-14.054a.32.32,0,0,1,.035-.193.3.3,0,0,1,.158-.026l2.4.035h5l2.373-.035q.149,0,.176.044a.355.355,0,0,1,.026.176l-.035,2.443v7.075L40.688-.94A2.239,2.239,0,0,1,40.117.738a1.929,1.929,0,0,1-1.046.431,14.752,14.752,0,0,1-1.942.088,1,1,0,0,1-.536-.079A1.018,1.018,0,0,1,36.46.7,4.371,4.371,0,0,0,35.995-.809Zm-3.568-5.44h6.249V-8.525H32.5Q32.461-6.987,32.426-6.249Zm6.249-6.205H32.5v2.18h6.179Z" transform="translate(-359 3932)" fill="#0a2451"/>
    <path id="パス_55" data-name="パス 55" d="M-40.689,0h2.358V-2.5h2.61V-3.834h-2.61v-.81h2.61V-5.976h-2l3.33-6.876h-2.5l-2.61,5.8-2.61-5.8h-2.5l3.33,6.876h-2v1.332h2.592v.81h-2.592V-2.5h2.592Zm6.714,0H-26.2V-1.926h-4.7l1.98-2.43a15.194,15.194,0,0,0,1.908-2.52,5.209,5.209,0,0,0,.792-2.736c0-2.214-1.314-3.438-3.672-3.438-2.466,0-3.816,1.206-3.978,3.546l2.16.162a2.694,2.694,0,0,1,.36-1.026,1.364,1.364,0,0,1,1.368-.756,1.261,1.261,0,0,1,1.422,1.4A3.771,3.771,0,0,1-28.9-8.208,16.825,16.825,0,0,1-30.393-5.94l-3.582,4.41Zm9.936-4.734a6.059,6.059,0,0,0,.7,3.42A3.452,3.452,0,0,0-20.1.18,3.494,3.494,0,0,0-17.019-1.1c.612-.774.864-1.818.864-3.636V-8.118a6.1,6.1,0,0,0-.7-3.42,3.452,3.452,0,0,0-3.24-1.494,3.494,3.494,0,0,0-3.078,1.278c-.612.774-.864,1.818-.864,3.636Zm5.562-.216c0,2.394-.414,3.222-1.62,3.222s-1.62-.846-1.62-3.222V-7.9c0-2.376.432-3.222,1.62-3.222,1.206,0,1.62.828,1.62,3.222ZM-14.5,3.384h2.016l1.332-5.652h-2.484Zm5.4-8.118a6.059,6.059,0,0,0,.7,3.42A3.452,3.452,0,0,0-5.157.18,3.494,3.494,0,0,0-2.079-1.1c.612-.774.864-1.818.864-3.636V-8.118a6.1,6.1,0,0,0-.7-3.42,3.452,3.452,0,0,0-3.24-1.494,3.494,3.494,0,0,0-3.078,1.278c-.612.774-.864,1.818-.864,3.636Zm5.562-.216c0,2.394-.414,3.222-1.62,3.222s-1.62-.846-1.62-3.222V-7.9c0-2.376.432-3.222,1.62-3.222,1.206,0,1.62.828,1.62,3.222Zm4.158.216a6.059,6.059,0,0,0,.7,3.42A3.452,3.452,0,0,0,4.563.18,3.494,3.494,0,0,0,7.641-1.1c.612-.774.864-1.818.864-3.636V-8.118a6.1,6.1,0,0,0-.7-3.42,3.452,3.452,0,0,0-3.24-1.494,3.494,3.494,0,0,0-3.078,1.278C.873-10.98.621-9.936.621-8.118ZM6.183-4.95c0,2.394-.414,3.222-1.62,3.222s-1.62-.846-1.62-3.222V-7.9c0-2.376.432-3.222,1.62-3.222,1.206,0,1.62.828,1.62,3.222Zm4.158.216a6.059,6.059,0,0,0,.7,3.42A3.452,3.452,0,0,0,14.283.18,3.494,3.494,0,0,0,17.361-1.1c.612-.774.864-1.818.864-3.636V-8.118a6.1,6.1,0,0,0-.7-3.42,3.452,3.452,0,0,0-3.24-1.494A3.494,3.494,0,0,0,11.2-11.754c-.612.774-.864,1.818-.864,3.636ZM15.9-4.95c0,2.394-.414,3.222-1.62,3.222s-1.62-.846-1.62-3.222V-7.9c0-2.376.432-3.222,1.62-3.222,1.206,0,1.62.828,1.62,3.222ZM19.521.36h2.214l4.3-13.572H23.823ZM35.995-.809q.949.088,2.048.088a.559.559,0,0,0,.633-.633V-4.5H32.242a10.146,10.146,0,0,1-.949,3.278,11.756,11.756,0,0,1-1.635,2.3q-.281.308-.378.308-.132,0-.422-.29A3.8,3.8,0,0,0,27.566.255a10.057,10.057,0,0,0,1.828-2.162,7.689,7.689,0,0,0,.9-2.725,29.067,29.067,0,0,0,.246-4.324V-11.61L30.5-14.054a.32.32,0,0,1,.035-.193.3.3,0,0,1,.158-.026l2.4.035h5l2.373-.035q.149,0,.176.044a.355.355,0,0,1,.026.176l-.035,2.443v7.075L40.688-.94A2.239,2.239,0,0,1,40.117.738a1.929,1.929,0,0,1-1.046.431,14.752,14.752,0,0,1-1.942.088,1,1,0,0,1-.536-.079A1.018,1.018,0,0,1,36.46.7,4.371,4.371,0,0,0,35.995-.809Zm-3.568-5.44h6.249V-8.525H32.5Q32.461-6.987,32.426-6.249Zm6.249-6.205H32.5v2.18h6.179Z" transform="translate(-242 3932)" fill="#0a2451"/>
    <path id="パス_56" data-name="パス 56" d="M-40.689,0h2.358V-2.5h2.61V-3.834h-2.61v-.81h2.61V-5.976h-2l3.33-6.876h-2.5l-2.61,5.8-2.61-5.8h-2.5l3.33,6.876h-2v1.332h2.592v.81h-2.592V-2.5h2.592Zm6.714,0H-26.2V-1.926h-4.7l1.98-2.43a15.194,15.194,0,0,0,1.908-2.52,5.209,5.209,0,0,0,.792-2.736c0-2.214-1.314-3.438-3.672-3.438-2.466,0-3.816,1.206-3.978,3.546l2.16.162a2.694,2.694,0,0,1,.36-1.026,1.364,1.364,0,0,1,1.368-.756,1.261,1.261,0,0,1,1.422,1.4A3.771,3.771,0,0,1-28.9-8.208,16.825,16.825,0,0,1-30.393-5.94l-3.582,4.41ZM-22.8-6.8c-.954.63-1.332,1.476-1.332,3.078C-24.129-.99-22.923.2-20.1.2s4.032-1.188,4.032-3.924c0-1.584-.378-2.448-1.35-3.078a3.286,3.286,0,0,0,.972-2.628c0-2.5-1.134-3.618-3.654-3.618-2.538,0-3.672,1.116-3.672,3.6A3.278,3.278,0,0,0-22.8-6.8Zm2.718-4.464c1.026,0,1.422.522,1.422,1.836,0,1.35-.4,1.872-1.44,1.872-1.062,0-1.458-.5-1.458-1.872C-21.555-10.764-21.159-11.268-20.079-11.268Zm0,5.508c1.206,0,1.674.576,1.674,2.034S-18.873-1.71-20.1-1.71s-1.692-.558-1.692-2.016C-21.789-5.2-21.321-5.76-20.079-5.76Zm5.58,9.144h2.016l1.332-5.652h-2.484Zm5.4-8.118a6.059,6.059,0,0,0,.7,3.42A3.452,3.452,0,0,0-5.157.18,3.494,3.494,0,0,0-2.079-1.1c.612-.774.864-1.818.864-3.636V-8.118a6.1,6.1,0,0,0-.7-3.42,3.452,3.452,0,0,0-3.24-1.494,3.494,3.494,0,0,0-3.078,1.278c-.612.774-.864,1.818-.864,3.636Zm5.562-.216c0,2.394-.414,3.222-1.62,3.222s-1.62-.846-1.62-3.222V-7.9c0-2.376.432-3.222,1.62-3.222,1.206,0,1.62.828,1.62,3.222Zm4.158.216a6.059,6.059,0,0,0,.7,3.42A3.452,3.452,0,0,0,4.563.18,3.494,3.494,0,0,0,7.641-1.1c.612-.774.864-1.818.864-3.636V-8.118a6.1,6.1,0,0,0-.7-3.42,3.452,3.452,0,0,0-3.24-1.494,3.494,3.494,0,0,0-3.078,1.278C.873-10.98.621-9.936.621-8.118ZM6.183-4.95c0,2.394-.414,3.222-1.62,3.222s-1.62-.846-1.62-3.222V-7.9c0-2.376.432-3.222,1.62-3.222,1.206,0,1.62.828,1.62,3.222Zm4.158.216a6.059,6.059,0,0,0,.7,3.42A3.452,3.452,0,0,0,14.283.18,3.494,3.494,0,0,0,17.361-1.1c.612-.774.864-1.818.864-3.636V-8.118a6.1,6.1,0,0,0-.7-3.42,3.452,3.452,0,0,0-3.24-1.494A3.494,3.494,0,0,0,11.2-11.754c-.612.774-.864,1.818-.864,3.636ZM15.9-4.95c0,2.394-.414,3.222-1.62,3.222s-1.62-.846-1.62-3.222V-7.9c0-2.376.432-3.222,1.62-3.222,1.206,0,1.62.828,1.62,3.222ZM19.521.36h2.214l4.3-13.572H23.823ZM35.995-.809q.949.088,2.048.088a.559.559,0,0,0,.633-.633V-4.5H32.242a10.146,10.146,0,0,1-.949,3.278,11.756,11.756,0,0,1-1.635,2.3q-.281.308-.378.308-.132,0-.422-.29A3.8,3.8,0,0,0,27.566.255a10.057,10.057,0,0,0,1.828-2.162,7.689,7.689,0,0,0,.9-2.725,29.067,29.067,0,0,0,.246-4.324V-11.61L30.5-14.054a.32.32,0,0,1,.035-.193.3.3,0,0,1,.158-.026l2.4.035h5l2.373-.035q.149,0,.176.044a.355.355,0,0,1,.026.176l-.035,2.443v7.075L40.688-.94A2.239,2.239,0,0,1,40.117.738a1.929,1.929,0,0,1-1.046.431,14.752,14.752,0,0,1-1.942.088,1,1,0,0,1-.536-.079A1.018,1.018,0,0,1,36.46.7,4.371,4.371,0,0,0,35.995-.809Zm-3.568-5.44h6.249V-8.525H32.5Q32.461-6.987,32.426-6.249Zm6.249-6.205H32.5v2.18h6.179Z" transform="translate(-125 3932)" fill="#0a2451"/>
    <path id="パス_64" data-name="パス 64" d="M.62,11.832H4.105V10.71H.62ZM12.065,9.377h4.488v.792H12.065ZM16.553,6.09v.739H12.065V6.09ZM12.065,7.727h4.488v.752H12.065Zm8.224,3.458V10.169H17.807V6.09h1.888v-1H17.807V3.952H16.553V5.087H12.065V3.938H10.837V5.087H8.923v1h1.914v4.079H8.276v1.016H11a7.864,7.864,0,0,1-2.851,1.954,4.147,4.147,0,0,1,.792.937,9.219,9.219,0,0,0,2.178-1.452V13.5h2.521V14.67H9.372v1.016h9.94V14.67H14.876V13.5H17.49v-.977H14.876v-.99H13.636v.99H11.22a8.409,8.409,0,0,0,1.162-1.333h3.934a8.423,8.423,0,0,0,3.34,2.746,4.968,4.968,0,0,1,.792-.95,7.5,7.5,0,0,1-2.785-1.8ZM33.224,7.832V6.592H28.116V3.925H26.822V6.592H21.767V7.832h4.316A12.258,12.258,0,0,1,21.3,13.02a7.087,7.087,0,0,1,.871,1.016,13.41,13.41,0,0,0,4.646-5.1v3.511H24.407v1.241h2.416V16.03h1.294V13.693h2.363V12.452H28.116V8.928A12.812,12.812,0,0,0,32.789,14a5.57,5.57,0,0,1,.924-1.082,11.728,11.728,0,0,1-4.844-5.082Zm12.949,2.534A4.886,4.886,0,0,0,41,5.39a5.722,5.722,0,0,0-5.9,5.491c0,2.2,1.2,3.656,2.508,3.656s2.4-1.492,3.194-4.184a26.284,26.284,0,0,0,.792-3.709,3.51,3.51,0,0,1,3.194,3.683,3.8,3.8,0,0,1-3.194,3.749,8.158,8.158,0,0,1-1.175.185L41.2,15.5C44.4,15.04,46.174,13.139,46.174,10.367Zm-9.742.383a4.412,4.412,0,0,1,3.762-4.079,21.015,21.015,0,0,1-.726,3.406c-.607,2.033-1.228,2.891-1.822,2.891C37.079,12.967,36.432,12.268,36.432,10.75ZM54.674,5.562H56.8v1.9c0,1.069.264,1.36,1.214,1.36h.9c.805,0,1.1-.422,1.188-2.02a2.951,2.951,0,0,1-1.016-.449c-.026,1.267-.079,1.452-.3,1.452h-.568c-.2,0-.224-.04-.224-.356V4.427H53.526v1.32a2.976,2.976,0,0,1-1.492,2.772,4.345,4.345,0,0,1,.818.884,4.082,4.082,0,0,0,1.822-3.63ZM52.14,9.614l-1.228.343V7.568H52.3V6.433H50.912V3.925H49.7V6.433H47.9V7.568h1.8v2.719c-.752.211-1.439.4-1.967.515l.356,1.267c.488-.145,1.043-.33,1.61-.515v3.1c0,.2-.066.251-.238.251s-.713.013-1.267-.013a4.2,4.2,0,0,1,.343,1.122,4.61,4.61,0,0,0,1.848-.2c.4-.2.528-.528.528-1.162V11.146c.449-.145.911-.3,1.36-.462Zm5.425,1.056A6.458,6.458,0,0,1,55.9,12.888a7,7,0,0,1-1.6-2.218ZM58.37,9.5l-.224.053H52.774V10.67h1.241l-.858.264a8.916,8.916,0,0,0,1.769,2.693A9.959,9.959,0,0,1,51.6,14.934a5.273,5.273,0,0,1,.647,1.122,11.358,11.358,0,0,0,3.617-1.6,9.571,9.571,0,0,0,3.458,1.571,5.936,5.936,0,0,1,.805-1.109,9.191,9.191,0,0,1-3.247-1.28,8.449,8.449,0,0,0,2.3-3.815Zm7.537-.9a4.315,4.315,0,0,0,2.944-1.729A3.909,3.909,0,0,0,71.267,8.6Zm4.343,1.518H64.06V9.377H70.25Zm0,1.492H64.06v-.752H70.25Zm0,1.518H64.06V12.36H70.25ZM68.165,5.734c-.3,1.082-1.056,1.716-3.181,2.059a3.187,3.187,0,0,1,.541.805H62.872V13.9h8.606V8.664c.3.079.647.158,1.016.224a3.442,3.442,0,0,1,.62-1c-2.68-.356-3.419-1.2-3.709-2.152h1.822a6.328,6.328,0,0,1-.66.9l.964.3a8.342,8.342,0,0,0,1.28-1.914l-.818-.211-.185.04H67.571A7.033,7.033,0,0,0,67.98,4.1l-1.109-.172a5.5,5.5,0,0,1-1.954,2.31,3.568,3.568,0,0,1,.924.594,6.317,6.317,0,0,0,1.122-1.1ZM65.01,5.153a16.277,16.277,0,0,0-2.759-.977l-.541.832A18.241,18.241,0,0,1,64.469,6.09Zm-.2,1.452c-1.36.356-2.759.726-3.722.924l.488,1.082c.977-.3,2.2-.66,3.353-1.043Zm.211,7.326a14.432,14.432,0,0,1-3.841,1.241,8.625,8.625,0,0,1,.924.911,17.486,17.486,0,0,0,4.039-1.637Zm3.01.647a26.68,26.68,0,0,1,3.538,1.492l1.412-.581a41.7,41.7,0,0,0-3.947-1.531Zm10.494-2.389a7.841,7.841,0,0,1-2.455,2.561,7.526,7.526,0,0,1,1.03.726,10.827,10.827,0,0,0,2.6-2.944Zm.29-2.521h5.016V10.7H78.817Zm0-1.9h5.016v1H78.817ZM85.1,11.634V6.816H81.642c.119-.343.238-.726.343-1.109h4.132V4.585H75.359V8.4c0,2.072-.092,4.963-1.228,7A5.083,5.083,0,0,1,75.214,16c1.175-2.138,1.36-5.386,1.36-7.59V5.707h3.96c-.053.343-.132.739-.224,1.109H77.616v4.818h3.1v3.128c0,.158-.053.211-.238.211s-.858,0-1.544-.013a4.771,4.771,0,0,1,.37,1.082,6,6,0,0,0,2.059-.185c.436-.158.541-.488.541-1.069V11.634Zm-2.27,1.082a14.024,14.024,0,0,1,2.508,2.68l1-.66a14.768,14.768,0,0,0-2.561-2.6ZM7.722,27.509V34.8H8.91V27.509Zm3.142-1.32v10.3c0,.238-.092.317-.343.33s-1.082.013-1.993-.026a4.588,4.588,0,0,1,.436,1.254,7.725,7.725,0,0,0,2.482-.211c.462-.224.647-.581.647-1.346v-10.3Zm-8.7,8.857a6.474,6.474,0,0,1-1.7,2.27,8.6,8.6,0,0,1,1.03.752,8.638,8.638,0,0,0,1.888-2.693Zm2.2.462a9.92,9.92,0,0,1,1.439,2.336l1.109-.554A10.169,10.169,0,0,0,5.438,35.06ZM2.442,29.9H5.254v1.4H2.442Zm0,2.376H5.254v1.412H2.442Zm0-4.752H5.254V28.9H2.442Zm-1.162-1.1v8.342H6.468V26.427Zm24.011,5.94a4.886,4.886,0,0,0-5.174-4.976,5.722,5.722,0,0,0-5.9,5.491c0,2.2,1.2,3.656,2.508,3.656s2.4-1.492,3.194-4.184a26.284,26.284,0,0,0,.792-3.709,3.51,3.51,0,0,1,3.194,3.683,3.8,3.8,0,0,1-3.194,3.749,8.158,8.158,0,0,1-1.175.185l.779,1.241C23.522,37.04,25.291,35.139,25.291,32.367Zm-9.742.383a4.412,4.412,0,0,1,3.762-4.079,21.015,21.015,0,0,1-.726,3.406c-.607,2.033-1.228,2.891-1.822,2.891C16.2,34.967,15.55,34.268,15.55,32.75Zm17.688-6.217H31.693a8.4,8.4,0,0,1,.092,1.135q0,.673-.04,1.267H29.621c-.515,0-1.109-.04-1.61-.079v1.373c.5-.04,1.122-.053,1.61-.053h2.006a8.2,8.2,0,0,1-2.416,5.188,7.044,7.044,0,0,1-1.518,1.109l1.214.99c2.27-1.6,3.577-3.617,4.066-7.286h3.379a19.094,19.094,0,0,1-.62,5.333.7.7,0,0,1-.752.449,15.113,15.113,0,0,1-1.914-.158l.158,1.386c.673.053,1.439.092,2.152.092a1.472,1.472,0,0,0,1.531-.9c.581-1.294.752-5.069.792-6.4.013-.158.053-.449.092-.673l-.924-.449a6,6,0,0,1-.911.079H33.106c.026-.409.053-.845.066-1.294C33.185,27.324,33.211,26.836,33.238,26.532ZM50,26.889H48.431A10.206,10.206,0,0,1,48.51,28.1v2.27c0,2.31-.172,3.34-1.1,4.4a6.157,6.157,0,0,1-3.168,1.716l1.1,1.148A7.209,7.209,0,0,0,48.5,35.706c.977-1.109,1.452-2.231,1.452-5.254V28.1C49.949,27.628,49.975,27.232,50,26.889Zm-6.125.106H42.359a8.526,8.526,0,0,1,.053.977v4.422c0,.383-.04.845-.053,1.069h1.518c-.026-.264-.053-.726-.053-1.069V27.971C43.824,27.6,43.85,27.272,43.877,26.994Zm13.939.634c.04.185.132.66.264,1.32-1.2.185-2.3.343-2.785.4-.409.04-.779.066-1.148.092l.277,1.452c.422-.106.739-.172,1.135-.238.462-.079,1.558-.264,2.772-.462.145.766.3,1.61.462,2.429-1.426.224-2.772.436-3.419.528-.37.053-.924.119-1.254.132l.3,1.412c.29-.079.686-.158,1.228-.251.62-.119,1.954-.343,3.392-.581.224,1.228.422,2.218.475,2.548.079.4.119.818.185,1.294l1.518-.277c-.132-.4-.251-.858-.343-1.241-.079-.356-.264-1.346-.5-2.534,1.228-.2,2.389-.383,3.076-.488.5-.079.977-.172,1.28-.2l-.277-1.386c-.3.092-.739.185-1.241.29-.634.119-1.808.317-3.089.528-.158-.818-.317-1.663-.462-2.416,1.188-.185,2.3-.356,2.878-.449.37-.053.818-.119,1.056-.145L63.347,28c-.264.079-.673.172-1.082.251-.515.106-1.637.29-2.838.488-.132-.686-.224-1.188-.251-1.346-.066-.29-.106-.7-.145-.95l-1.478.238A7.518,7.518,0,0,1,57.816,27.628Zm18.031,3.089-1-.488a2.674,2.674,0,0,1-.792.106H70.3a11.42,11.42,0,0,1-1.162-.066v1.373c.356-.013.779-.04,1.175-.04h3.92c-.04.739-.383,3.01-.568,4.132H69.1a10.725,10.725,0,0,1-1.188-.066v1.36c.449-.013.752-.026,1.188-.026h7.115c.317,0,.871.013,1.122.026V35.68c-.3.026-.845.053-1.148.053H75.082c.185-1.228.554-3.7.66-4.541C75.768,31.06,75.808,30.862,75.847,30.717Zm6.362-3.67v1.36c.37-.026.845-.04,1.267-.04H88.6c.449,0,.977.013,1.307.04v-1.36a12.61,12.61,0,0,1-1.294.066H83.477A12.075,12.075,0,0,1,82.21,27.047Zm8.738,3.63-.937-.581a2.619,2.619,0,0,1-.845.119H82.408c-.383,0-.884-.04-1.4-.092V31.5c.5-.04,1.082-.053,1.4-.053h6.719a6.222,6.222,0,0,1-1.465,2.64,8.881,8.881,0,0,1-4.62,2.376l1.03,1.188A9.754,9.754,0,0,0,88.8,34.835a9.34,9.34,0,0,0,1.94-3.7A2.318,2.318,0,0,1,90.948,30.677ZM7.075,49.113l-1.65-.343a8.332,8.332,0,0,1-.29,1.373c-.37,1.333-1.624,5.28-2.363,7.168-.2.013-.383.013-.541.026-.4.026-.911.026-1.32.026l.238,1.531c.4-.053.832-.119,1.162-.158,1.716-.158,5.94-.62,8.039-.871.277.607.515,1.188.686,1.65l1.4-.634a38.687,38.687,0,0,0-2.9-5.425l-1.28.554a17.77,17.77,0,0,1,1.5,2.574c-1.412.185-3.643.436-5.438.594.66-1.742,1.861-5.478,2.257-6.732C6.772,49.866,6.93,49.47,7.075,49.113ZM.62,77.832H4.105V76.71H.62Zm15.906-7.273h-1.5a10.158,10.158,0,0,1,.119,1.2c.013.317.026.713.04,1.148H10.573a10.359,10.359,0,0,1-1.32-.092v1.4q.653-.04,1.346-.04h4.026a16.1,16.1,0,0,1-5.953,4.858l.95,1.082a18.286,18.286,0,0,0,5.61-4.726c.026,1.61.04,3.26.04,4.25,0,.356-.132.528-.488.528a13.426,13.426,0,0,1-1.808-.145l.106,1.36c.7.04,1.465.079,2.191.079.884,0,1.333-.422,1.333-1.188-.013-1.7-.066-4.145-.106-6.1h1.927c.33,0,.805.013,1.162.026V72.816a10.623,10.623,0,0,1-1.228.092H16.474c0-.449-.013-.832-.013-1.148A7.333,7.333,0,0,1,16.526,70.559Zm7.432.607-.964,1.03a28.63,28.63,0,0,1,3.3,2.8l1.043-1.069A27.7,27.7,0,0,0,23.958,71.166ZM22.6,80l.884,1.36a14.554,14.554,0,0,0,5.056-1.967,13.5,13.5,0,0,0,4.633-4.778l-.805-1.439a12.568,12.568,0,0,1-4.58,4.976A13.716,13.716,0,0,1,22.6,80Zm14.494-8.95v1.36c.37-.026.845-.04,1.267-.04h5.122c.449,0,.977.013,1.307.04v-1.36a12.611,12.611,0,0,1-1.294.066H38.359A12.076,12.076,0,0,1,37.092,71.047Zm8.738,3.63-.937-.581a2.619,2.619,0,0,1-.845.119H37.29c-.383,0-.884-.04-1.4-.092V75.5c.5-.04,1.082-.053,1.4-.053h6.719a6.222,6.222,0,0,1-1.465,2.64,8.881,8.881,0,0,1-4.62,2.376l1.03,1.188a9.754,9.754,0,0,0,4.726-2.812,9.34,9.34,0,0,0,1.94-3.7A2.318,2.318,0,0,1,45.83,74.677Zm2.455,1.4.647,1.307A27.007,27.007,0,0,0,53.8,75.337v4.594a15.3,15.3,0,0,1-.079,1.558h1.637a9.927,9.927,0,0,1-.092-1.558V74.453a22.267,22.267,0,0,0,3.551-2.891L57.71,70.506a16.294,16.294,0,0,1-3.67,3.142A21.8,21.8,0,0,1,48.286,76.076Zm15.272-4.91-.964,1.03a28.63,28.63,0,0,1,3.3,2.8l1.043-1.069A27.7,27.7,0,0,0,63.558,71.166ZM62.2,80l.884,1.36a14.554,14.554,0,0,0,5.056-1.967,13.5,13.5,0,0,0,4.633-4.778l-.805-1.439a12.568,12.568,0,0,1-4.58,4.976A13.716,13.716,0,0,1,62.2,80Zm21.146-4.963v-.449H84.6c.634,0,1.1.013,1.307.04v-1.4a8.771,8.771,0,0,1-1.32.079H83.345V71.773a8.607,8.607,0,0,1,.079-1.148H81.932A9.114,9.114,0,0,1,82,71.773V73.3H78.514V71.786a7.114,7.114,0,0,1,.079-1.056H77.1a7.243,7.243,0,0,1,.079,1.056V73.3H75.887a8.206,8.206,0,0,1-1.373-.106v1.439c.211-.026.752-.053,1.373-.053H77.18v1.98c0,.554-.053,1.1-.066,1.28H78.58a11.737,11.737,0,0,1-.066-1.28v-1.98H82v.528c0,3.5-1.162,4.633-3.63,5.544l1.122,1.056C82.579,80.327,83.345,78.439,83.345,75.034ZM10.085,93.179a.783.783,0,0,1,.779-.792.792.792,0,0,1,0,1.584A.783.783,0,0,1,10.085,93.179Zm-.7,0A1.485,1.485,0,1,0,10.864,91.7,1.476,1.476,0,0,0,9.385,93.179Zm-2.033-.462H5.795a5.624,5.624,0,0,1,.106,1.03v1.228H2.363A10.961,10.961,0,0,1,1.188,94.9v1.386c.356-.026.779-.04,1.188-.04H5.9V101.9c-.013.356-.158.488-.5.488a9.01,9.01,0,0,1-1.5-.145l.119,1.307a19.774,19.774,0,0,0,1.993.092c.871,0,1.241-.409,1.241-1.122V96.242h3.326c.33,0,.779,0,1.162.026V94.9a8.783,8.783,0,0,1-1.175.079H7.247V93.76A7.091,7.091,0,0,1,7.352,92.717Zm-3,5.491-1.175-.568a13.7,13.7,0,0,1-2.495,3.432l1.135.779A19.723,19.723,0,0,0,4.356,98.208Zm5.584-.581-1.135.62A22.857,22.857,0,0,1,11,101.772l1.214-.686A28.364,28.364,0,0,0,9.94,97.628Zm4.541-.515V98.75c.449-.04,1.241-.066,1.967-.066h7.181c.581,0,1.188.053,1.478.066V97.113c-.33.026-.845.079-1.478.079H16.447C15.734,97.192,14.916,97.139,14.48,97.113Zm16.236,4.673a13.818,13.818,0,0,1-.106,1.69h1.624a15.466,15.466,0,0,1-.106-1.69V97.707a34.563,34.563,0,0,1,4.99,2.059l.594-1.439a44.743,44.743,0,0,0-5.584-2.112V94.156c0-.462.053-1.043.092-1.478H30.6a9.556,9.556,0,0,1,.119,1.478Zm9.517-2.548,1.241,1.28c.224-.3.528-.726.805-1.122.634-.779,1.65-2.178,2.231-2.9.422-.515.673-.607,1.188-.04.62.7,1.61,1.967,2.455,2.93.871,1.016,2.046,2.323,3.023,3.247l1.069-1.228c-1.214-1.082-2.455-2.389-3.274-3.287-.818-.871-1.848-2.2-2.68-3.036-.911-.911-1.676-.805-2.508.158-.805.95-1.861,2.389-2.534,3.062A8.123,8.123,0,0,1,40.234,99.238Zm24.658-.871a4.886,4.886,0,0,0-5.174-4.976,5.722,5.722,0,0,0-5.9,5.491c0,2.2,1.2,3.656,2.508,3.656s2.4-1.492,3.194-4.184a26.284,26.284,0,0,0,.792-3.709,3.51,3.51,0,0,1,3.194,3.683,3.8,3.8,0,0,1-3.194,3.749,8.158,8.158,0,0,1-1.175.185l.779,1.241C63.122,103.04,64.891,101.139,64.891,98.367Zm-9.742.383a4.412,4.412,0,0,1,3.762-4.079,21.015,21.015,0,0,1-.726,3.406c-.607,2.033-1.228,2.891-1.822,2.891C55.8,100.967,55.15,100.268,55.15,98.75Zm23.285-4.673L77.6,93.3a6.793,6.793,0,0,1-1.1.092H69.128a11.829,11.829,0,0,1-1.558-.119v1.465c.568-.04,1.03-.079,1.558-.079h7.234a8.081,8.081,0,0,1-2.693,2.732l1.1.884A13.072,13.072,0,0,0,78,94.631C78.1,94.473,78.316,94.222,78.434,94.077ZM73.1,95.832H71.6a5.864,5.864,0,0,1,.079,1.056c0,2.191-.3,3.854-2.191,5.069a5.011,5.011,0,0,1-1.267.647l1.214.99C72.9,101.812,73.1,99.278,73.1,95.832Zm12.738-3.1-1.531-.5a5.852,5.852,0,0,1-.488,1.188,11.2,11.2,0,0,1-4.145,4.369l1.162.871a13.785,13.785,0,0,0,3.353-3.234h4.118A9.912,9.912,0,0,1,86.3,99.317a10.576,10.576,0,0,1-5.293,3.3l1.228,1.1a11.9,11.9,0,0,0,5.28-3.656,13.064,13.064,0,0,0,2.323-4.488,4.517,4.517,0,0,1,.37-.805l-1.082-.66a3.1,3.1,0,0,1-.99.132H84.968c.066-.106.132-.224.185-.33C85.3,93.641,85.576,93.126,85.84,92.73ZM3.894,123.271c0,1.412.449,2.1,3.155,2.1a30.644,30.644,0,0,0,4.118-.277l.053-1.426a20.918,20.918,0,0,1-4.145.409c-1.518,0-1.808-.29-1.808-1.162v-3.736c2.138-.436,4.277-.858,4.58-.924A12.356,12.356,0,0,1,7.6,121.2l1.148.673a18.963,18.963,0,0,0,2.719-3.841c.106-.2.264-.449.37-.607l-.99-.779a2.992,2.992,0,0,1-.805.277c-.568.132-2.68.554-4.778.964V116.05a9.11,9.11,0,0,1,.106-1.346H3.8a8.985,8.985,0,0,1,.092,1.346v2.086c-1.36.251-2.561.462-3.168.541l.251,1.386c.541-.119,1.65-.356,2.917-.607Zm20.064-7.154-.858-.634a4,4,0,0,1-1.148.132h-4.9a14.124,14.124,0,0,1-1.439-.092v1.492c.211-.013.924-.079,1.439-.079H21.9a10.86,10.86,0,0,1-2.1,3.485,14.832,14.832,0,0,1-5.425,3.868l1.069,1.122a17.328,17.328,0,0,0,5.082-3.8,29.624,29.624,0,0,1,3.5,3.854l1.162-1.03a35.086,35.086,0,0,0-3.775-3.868,18.067,18.067,0,0,0,2.165-3.762A4.556,4.556,0,0,1,23.958,116.116ZM.62,143.832H4.105V142.71H.62Zm9.359-5.32h8.567v1.874H19.8v-3.036H14.916v-1.412H13.609v1.412H8.778v3.036h1.2Zm4.924,5.65h3.775v-1.148H14.9v-1.94h3.115V139.9H10.586v1.175h3.049v5.122a3.778,3.778,0,0,1-2.152-2.323,16.142,16.142,0,0,0,.317-1.729l-1.267-.119c-.277,2.31-.95,4.158-2.4,5.24a6.639,6.639,0,0,1,1.016.845,6.719,6.719,0,0,0,1.861-2.746c1.2,2.072,3.1,2.508,5.689,2.508H19.84a3.7,3.7,0,0,1,.462-1.241c-.752.026-2.97.026-3.538.026a13.791,13.791,0,0,1-1.861-.119Zm8.857-1.492h2.059v1.135H23.76Zm2.059-4.013v.99H23.76v-.99Zm-2.059,1.954h2.059v1.1H23.76Zm4.092,3.194h-.9v-5.148h.95v-1.069h-.95V136.07H25.819v1.518H23.76V136.07H22.651v1.518H21.582v1.069h1.069v5.148H21.424v1.069h6.428Zm-4.7,1.28a6.519,6.519,0,0,1-1.769,2.244,6.259,6.259,0,0,1,.977.726,9.231,9.231,0,0,0,1.954-2.653Zm1.9.475a13.658,13.658,0,0,1,1.373,2.006l.99-.594a12.6,12.6,0,0,0-1.426-1.927Zm4.528-3.023c.026-.422.026-.845.026-1.228v-.7h2.323v1.927Zm2.35-4.871v1.861H29.608v-1.861Zm1.188-1.109H28.446v4.752c0,1.888-.092,4.356-1.135,6.072a4.314,4.314,0,0,1,.977.713,10.493,10.493,0,0,0,1.214-4.448h2.429v2.93c0,.211-.079.264-.277.277-.172,0-.832.013-1.452-.013A4.211,4.211,0,0,1,30.558,148a4.584,4.584,0,0,0,2.006-.224c.409-.185.554-.541.554-1.188ZM36.34,145.6v-2.917h2.455V145.6Zm2.455-6.494v2.508H36.34v-2.508Zm3.736-1.135c.211-.581.383-1.188.541-1.8l-1.188-.277a12.605,12.605,0,0,1-1.967,4.633v-2.495H37.8c.211-.554.462-1.254.686-1.914l-1.333-.224a15.476,15.476,0,0,1-.462,2.138H35.218v9.649H36.34v-1h3.577v-6.059a6.476,6.476,0,0,1,.964.686,13.276,13.276,0,0,0,1.2-2.218H45.2c-.172,4.976-.343,6.97-.766,7.405a.592.592,0,0,1-.554.224c-.33,0-1.1-.013-1.94-.079a2.875,2.875,0,0,1,.4,1.188,14.18,14.18,0,0,0,1.993,0,1.472,1.472,0,0,0,1.148-.62c.528-.66.686-2.706.871-8.659.013-.158.013-.581.013-.581Zm1.69,5.953a23.7,23.7,0,0,0-1.993-2.944l-.964.541a21.493,21.493,0,0,1,1.927,3.049Zm9.134-7.471-1.452-.145a10.773,10.773,0,0,1-.383,2.257c-.462.04-.924.053-1.36.053-.528,0-1.162-.026-1.676-.079l.092,1.228c.528.026,1.082.04,1.584.04.317,0,.634-.013.964-.026a19.823,19.823,0,0,1-2.772,4.818l1.267.647a23.617,23.617,0,0,0,2.864-5.61,17.719,17.719,0,0,0,2.363-.475l-.04-1.214a12.62,12.62,0,0,1-1.94.449C53.064,137.654,53.249,136.915,53.354,136.453Zm-.713,9.148c0-.541.594-.937,1.465-.937a4.6,4.6,0,0,1,1.228.172c.013.172.013.33.013.449,0,.713-.33,1.267-1.333,1.267C53.117,146.551,52.642,146.168,52.642,145.6Zm3.815-5.056H55.163c.026.871.092,2.112.132,3.155a7.568,7.568,0,0,0-1.122-.092c-1.637,0-2.759.871-2.759,2.112,0,1.373,1.241,2.033,2.772,2.033,1.742,0,2.416-.911,2.416-2.033v-.37a10.3,10.3,0,0,1,1.98,1.478l.7-1.122a8.6,8.6,0,0,0-2.732-1.663c-.04-.752-.079-1.518-.092-1.954C56.443,141.562,56.43,141.1,56.456,140.545Zm2.482.5.752-1.1a23.366,23.366,0,0,0-3.168-1.769l-.673,1.016A16.785,16.785,0,0,1,58.938,141.047Zm9.755-.964H66.66v-1.148h2.033Zm0,2.165H66.66V141.1h2.033Zm0,2.2H66.66v-1.188h2.033ZM65.459,145.5h7.405v-1.043h-3v-1.188h2.4v-1.016h-2.4V141.1H72.31v-1.016H69.868v-1.148H72.64v-1.043H70.066c.251-.488.515-1.043.752-1.571l-1.333-.264a11.8,11.8,0,0,1-.647,1.835H67.016a14.667,14.667,0,0,0,.779-1.584l-1.228-.343a10.079,10.079,0,0,1-3,4.118,6.255,6.255,0,0,1,.924.95,10.859,10.859,0,0,0,.964-.95Zm-1.228-7.128a9.812,9.812,0,0,0-2.086-2.112l-.937.686a9.425,9.425,0,0,1,2.033,2.2Zm-.356,2.68H61.116v1.135H62.7v3.181a18.2,18.2,0,0,1-1.729,1.346l.607,1.214c.647-.568,1.228-1.1,1.782-1.637a4.4,4.4,0,0,0,3.577,1.518c1.531.053,4.33.026,5.848-.04a5.345,5.345,0,0,1,.4-1.2c-1.676.119-4.739.158-6.23.092a3.512,3.512,0,0,1-3.076-1.386Zm14.256.4-1.2.356v-2.178h1.32v-1.135H76.93v-2.548H75.808v2.548H74.276v1.135h1.531v2.508c-.647.185-1.241.356-1.716.475l.277,1.188c.436-.145.924-.29,1.439-.449v3.34c0,.185-.066.224-.238.224-.145.013-.634.013-1.162,0a3.919,3.919,0,0,1,.33,1.135,3.938,3.938,0,0,0,1.716-.224c.356-.2.475-.528.475-1.135V143c.449-.145.911-.29,1.36-.436Zm1.531.119a5.485,5.485,0,0,1-1.742,2.548,7.3,7.3,0,0,1,.9.7,7.14,7.14,0,0,0,1.927-3Zm4.91.211c-.792,3.076-2.64,4.607-6.27,5.254a3.6,3.6,0,0,1,.607,1.043c3.907-.858,5.9-2.574,6.8-6.019Zm-1.729-1.914V138.5h2.719v-1.016H82.843v-1.544H81.695v3.92H80.441v-2.68h-1.1v2.68H78.17v1.069h3.524v2.97c0,.119-.04.158-.185.158s-.634.013-1.148,0a3.605,3.605,0,0,1,.264,1.082,4.673,4.673,0,0,0,1.729-.172c.4-.185.475-.488.475-1.043v-3h3.445v-1.069ZM2.772,168.538l.977.832a2.737,2.737,0,0,1,.66-.277,15.842,15.842,0,0,0,7.7-4.739l-.752-1.162a14.657,14.657,0,0,1-7.022,4.435v-7.22a8.621,8.621,0,0,1,.106-1.32H2.8a7.812,7.812,0,0,1,.119,1.333V167.8A1.457,1.457,0,0,1,2.772,168.538Zm20.1-10.032-.858.356a15.876,15.876,0,0,1,1.056,1.822l.858-.37A19.01,19.01,0,0,0,22.876,158.506Zm1.492-.554-.845.356a12.3,12.3,0,0,1,1.069,1.808l.858-.37A16.208,16.208,0,0,0,24.367,157.952Zm-7.326,1.043H15.5a7.878,7.878,0,0,1,.092,1.214v7.22c0,1.109.607,1.637,1.676,1.835a14.385,14.385,0,0,0,2.165.132,38.657,38.657,0,0,0,4.633-.264v-1.518a22.044,22.044,0,0,1-4.554.436,11.384,11.384,0,0,1-1.65-.092c-.62-.132-.9-.29-.9-.924V164.34a51.023,51.023,0,0,0,5.293-1.663c.422-.158.95-.4,1.386-.568l-.581-1.333a7.29,7.29,0,0,1-1.28.647,36.249,36.249,0,0,1-4.818,1.544v-2.759A11.978,11.978,0,0,1,17.041,158.994Zm19.206,3.722-1-.488a2.674,2.674,0,0,1-.792.106H30.7a11.421,11.421,0,0,1-1.162-.066v1.373c.356-.013.779-.04,1.175-.04h3.92c-.04.739-.383,3.01-.568,4.132H29.5a10.722,10.722,0,0,1-1.188-.066v1.36c.449-.013.752-.026,1.188-.026h7.115c.317,0,.871.013,1.122.026V167.68c-.3.026-.845.053-1.148.053H35.482c.185-1.228.554-3.7.66-4.541C36.168,163.06,36.208,162.862,36.247,162.717Zm4.633.4v1.637c.449-.04,1.241-.066,1.967-.066h7.181c.581,0,1.188.053,1.478.066v-1.637c-.33.026-.845.079-1.478.079H42.847C42.134,163.192,41.316,163.139,40.88,163.113Z" transform="translate(-406 3961)" fill="#3f3f3f"/>
    <path id="パス_57" data-name="パス 57" d="M.62,11.832H4.105V10.71H.62ZM10.586,8.7A16,16,0,0,0,14.23,5.1a17.276,17.276,0,0,0,3.8,3.6Zm4.3,3.973h3.841V11.608H14.89V9.786h3.3V8.809a16.533,16.533,0,0,0,1.452.924,7.2,7.2,0,0,1,.805-1.082A15.62,15.62,0,0,1,14.8,3.886H13.543a15.028,15.028,0,0,1-5.4,4.91,4.837,4.837,0,0,1,.779.99,15.576,15.576,0,0,0,1.518-.977v.977H13.6v1.822H9.821v1.069H13.6v1.914H8.752V15.7H19.892V14.591h-5ZM27.72,4.532H26.176a8.4,8.4,0,0,1,.092,1.135q0,.673-.04,1.267H24.1c-.515,0-1.109-.04-1.61-.079V8.228c.5-.04,1.122-.053,1.61-.053H26.11a8.2,8.2,0,0,1-2.416,5.188,7.044,7.044,0,0,1-1.518,1.109l1.214.99c2.27-1.6,3.577-3.617,4.066-7.286h3.379a19.094,19.094,0,0,1-.62,5.333.7.7,0,0,1-.752.449,15.112,15.112,0,0,1-1.914-.158l.158,1.386c.673.053,1.439.092,2.152.092a1.472,1.472,0,0,0,1.531-.9c.581-1.294.752-5.069.792-6.4.013-.158.053-.449.092-.673l-.924-.449a6,6,0,0,1-.911.079H27.588c.026-.409.053-.845.066-1.294C27.667,5.324,27.694,4.836,27.72,4.532Zm16.764.356H42.913A10.206,10.206,0,0,1,42.992,6.1v2.27c0,2.31-.172,3.34-1.1,4.4a6.157,6.157,0,0,1-3.168,1.716l1.1,1.148a7.209,7.209,0,0,0,3.155-1.927c.977-1.109,1.452-2.231,1.452-5.254V6.1C44.431,5.628,44.458,5.232,44.484,4.889Zm-6.125.106H36.841a8.526,8.526,0,0,1,.053.977v4.422c0,.383-.04.845-.053,1.069h1.518c-.026-.264-.053-.726-.053-1.069V5.971C38.306,5.6,38.333,5.272,38.359,4.994ZM52.3,5.628c.04.185.132.66.264,1.32-1.2.185-2.3.343-2.785.4-.409.04-.779.066-1.148.092l.277,1.452c.422-.106.739-.172,1.135-.238.462-.079,1.558-.264,2.772-.462.145.766.3,1.61.462,2.429-1.426.224-2.772.436-3.419.528-.37.053-.924.119-1.254.132l.3,1.412c.29-.079.686-.158,1.228-.251.62-.119,1.954-.343,3.392-.581.224,1.228.422,2.218.475,2.548.079.4.119.818.185,1.294l1.518-.277c-.132-.4-.251-.858-.343-1.241-.079-.356-.264-1.346-.5-2.534,1.228-.2,2.389-.383,3.076-.488.5-.079.977-.172,1.28-.2l-.277-1.386c-.3.092-.739.185-1.241.29-.634.119-1.808.317-3.089.528-.158-.818-.317-1.663-.462-2.416,1.188-.185,2.3-.356,2.878-.449.37-.053.818-.119,1.056-.145L57.829,6c-.264.079-.673.172-1.082.251-.515.106-1.637.29-2.838.488-.132-.686-.224-1.188-.251-1.346-.066-.29-.106-.7-.145-.95l-1.478.238A7.519,7.519,0,0,1,52.3,5.628ZM70.33,8.717l-1-.488a2.674,2.674,0,0,1-.792.106H64.786a11.42,11.42,0,0,1-1.162-.066V9.641c.356-.013.779-.04,1.175-.04h3.92c-.04.739-.383,3.01-.568,4.132H63.584a10.724,10.724,0,0,1-1.188-.066v1.36c.449-.013.752-.026,1.188-.026H70.7c.317,0,.871.013,1.122.026V13.68c-.3.026-.845.053-1.148.053H69.564c.185-1.228.554-3.7.66-4.541C70.25,9.06,70.29,8.862,70.33,8.717Zm6.362-3.67v1.36c.37-.026.845-.04,1.267-.04h5.122c.449,0,.977.013,1.307.04V5.047a12.611,12.611,0,0,1-1.294.066H77.959A12.075,12.075,0,0,1,76.692,5.047Zm8.738,3.63L84.493,8.1a2.619,2.619,0,0,1-.845.119H76.89c-.383,0-.884-.04-1.4-.092V9.5c.5-.04,1.082-.053,1.4-.053h6.719a6.222,6.222,0,0,1-1.465,2.64,8.881,8.881,0,0,1-4.62,2.376l1.03,1.188a9.754,9.754,0,0,0,4.726-2.812,9.34,9.34,0,0,0,1.94-3.7A2.318,2.318,0,0,1,85.43,8.677ZM7.075,27.113l-1.65-.343a8.332,8.332,0,0,1-.29,1.373c-.37,1.333-1.624,5.28-2.363,7.168-.2.013-.383.013-.541.026-.4.026-.911.026-1.32.026l.238,1.531c.4-.053.832-.119,1.162-.158,1.716-.158,5.94-.62,8.039-.871.277.607.515,1.188.686,1.65l1.4-.634a38.687,38.687,0,0,0-2.9-5.425l-1.28.554a17.77,17.77,0,0,1,1.5,2.574c-1.412.185-3.643.436-5.438.594.66-1.742,1.861-5.478,2.257-6.732C6.772,27.866,6.93,27.47,7.075,27.113Zm18.216,5.254a4.886,4.886,0,0,0-5.174-4.976,5.722,5.722,0,0,0-5.9,5.491c0,2.2,1.2,3.656,2.508,3.656s2.4-1.492,3.194-4.184a26.284,26.284,0,0,0,.792-3.709,3.51,3.51,0,0,1,3.194,3.683,3.8,3.8,0,0,1-3.194,3.749,8.158,8.158,0,0,1-1.175.185l.779,1.241C23.522,37.04,25.291,35.139,25.291,32.367Zm-9.742.383a4.412,4.412,0,0,1,3.762-4.079,21.015,21.015,0,0,1-.726,3.406c-.607,2.033-1.228,2.891-1.822,2.891C16.2,34.967,15.55,34.268,15.55,32.75Zm23.285-4.673L38,27.3a6.793,6.793,0,0,1-1.1.092H29.528a11.829,11.829,0,0,1-1.558-.119v1.465c.568-.04,1.03-.079,1.558-.079h7.234a8.081,8.081,0,0,1-2.693,2.732l1.1.884A13.072,13.072,0,0,0,38.4,28.631C38.5,28.473,38.716,28.222,38.834,28.077ZM33.5,29.832H32a5.864,5.864,0,0,1,.079,1.056c0,2.191-.3,3.854-2.191,5.069a5.011,5.011,0,0,1-1.267.647l1.214.99C33.3,35.812,33.5,33.278,33.5,29.832Zm12.738-3.1-1.531-.5a5.852,5.852,0,0,1-.488,1.188,11.2,11.2,0,0,1-4.145,4.369l1.162.871a13.785,13.785,0,0,0,3.353-3.234h4.118A9.912,9.912,0,0,1,46.7,33.317a10.576,10.576,0,0,1-5.293,3.3l1.228,1.1a11.9,11.9,0,0,0,5.28-3.656,13.064,13.064,0,0,0,2.323-4.488,4.518,4.518,0,0,1,.37-.805l-1.082-.66a3.1,3.1,0,0,1-.99.132H45.368c.066-.106.132-.224.185-.33C45.7,27.641,45.976,27.126,46.24,26.73Zm9.794,8.54c0,1.412.449,2.1,3.155,2.1a30.644,30.644,0,0,0,4.118-.277l.053-1.426a20.918,20.918,0,0,1-4.145.409c-1.518,0-1.808-.29-1.808-1.162V31.179c2.138-.436,4.277-.858,4.58-.924A12.356,12.356,0,0,1,59.743,33.2l1.148.673a18.964,18.964,0,0,0,2.719-3.841c.106-.2.264-.449.37-.607l-.99-.779a2.992,2.992,0,0,1-.805.277c-.568.132-2.68.554-4.778.964V28.05a9.11,9.11,0,0,1,.106-1.346H55.942a8.986,8.986,0,0,1,.092,1.346v2.086c-1.36.251-2.561.462-3.168.541l.251,1.386c.541-.119,1.65-.356,2.917-.607ZM76.1,28.116l-.858-.634a4,4,0,0,1-1.148.132h-4.9a14.123,14.123,0,0,1-1.439-.092v1.492c.211-.013.924-.079,1.439-.079h4.844a10.86,10.86,0,0,1-2.1,3.485,14.832,14.832,0,0,1-5.425,3.868l1.069,1.122a17.328,17.328,0,0,0,5.082-3.8,29.624,29.624,0,0,1,3.5,3.854l1.162-1.03a35.086,35.086,0,0,0-3.775-3.868A18.067,18.067,0,0,0,75.715,28.8,4.556,4.556,0,0,1,76.1,28.116ZM.62,55.832H4.105V54.71H.62Zm12.659,2.9a10.929,10.929,0,0,0-2.02-1.769l-.924.66A9.959,9.959,0,0,1,12.3,59.488Zm-2.468-5.465h2.825v.9H10.811Zm0-1.729h2.825v.911H10.811Zm6.943,0v.911H14.837v-.911Zm0,2.627H14.837v-.9h2.917Zm2.429,1.756H17.266V55.04h1.69V50.684H14.837v-.752h5.042V48.889H14.837v-.95h-1.2v.95H8.712v1.043h4.924v.752H9.662V55.04h6.4v.884H8.4v1.043h7.669v1.8c0,.185-.066.238-.277.251s-1.043,0-1.835-.026a4.638,4.638,0,0,1,.4,1.082,8.583,8.583,0,0,0,2.31-.172c.475-.172.607-.475.607-1.1V56.967h2.917Zm4.462-7.96a14.628,14.628,0,0,1-3.445,5.2,7.393,7.393,0,0,1,.739,1.254,14.278,14.278,0,0,0,1.346-1.531V60.03H24.5V51.08a21.116,21.116,0,0,0,1.346-2.746Zm8.87,6.679V53.456H29.99V50.011a26.673,26.673,0,0,0,3.076-.779l-.9-1.043A35.7,35.7,0,0,1,25.41,49.6a4.7,4.7,0,0,1,.37,1.043c.95-.106,1.967-.238,2.97-.409v3.221H25.014v1.188H28.75V58.38H25.516v1.175H33.33V58.38H29.99V54.644ZM38.4,57.786a13.819,13.819,0,0,1-.106,1.69h1.624a15.466,15.466,0,0,1-.106-1.69V53.707a34.563,34.563,0,0,1,4.99,2.059l.594-1.439a44.744,44.744,0,0,0-5.584-2.112V50.156c0-.462.053-1.043.092-1.478H38.28a9.556,9.556,0,0,1,.119,1.478Zm11.656.752.977.832a2.737,2.737,0,0,1,.66-.277,15.842,15.842,0,0,0,7.7-4.739l-.752-1.162a14.657,14.657,0,0,1-7.022,4.435v-7.22a8.621,8.621,0,0,1,.106-1.32H50.081A7.812,7.812,0,0,1,50.2,50.42V57.8A1.457,1.457,0,0,1,50.054,58.538Zm11.708-5.425V54.75c.449-.04,1.241-.066,1.967-.066H70.91c.581,0,1.188.053,1.478.066V53.113c-.33.026-.845.079-1.478.079H63.73C63.017,53.192,62.2,53.139,61.763,53.113ZM6.244,72.1v1.624H2.561a11.662,11.662,0,0,1-1.333-.079V75.1a12.914,12.914,0,0,1,1.36-.053H6.244a5.791,5.791,0,0,1-3.577,5.6l1.294.964a7.034,7.034,0,0,0,3.709-6.56h3.26c.462,0,1.043.013,1.28.04V73.661a9.693,9.693,0,0,1-1.267.066H7.669V72.1a12.128,12.128,0,0,1,.092-1.426H6.1A6.858,6.858,0,0,1,6.244,72.1Zm8.237,3.01V76.75c.449-.04,1.241-.066,1.967-.066h7.181c.581,0,1.188.053,1.478.066V75.113c-.33.026-.845.079-1.478.079H16.447C15.734,75.192,14.916,75.139,14.48,75.113Zm17.833-4.462-1.544-.158a14.754,14.754,0,0,1-.3,2.838c-.752.066-1.465.119-1.888.132-.449.013-.832.026-1.28,0l.132,1.426c.37-.066.977-.145,1.307-.185.3-.04.845-.106,1.452-.172a20.948,20.948,0,0,1-2.746,6.428l1.36.541a27.562,27.562,0,0,0,2.732-7.1c.5-.053.937-.079,1.214-.079.832,0,1.346.2,1.346,1.333a10.729,10.729,0,0,1-.594,3.868,1.034,1.034,0,0,1-1.082.634,6.874,6.874,0,0,1-1.61-.264l.211,1.373a7.423,7.423,0,0,0,1.571.185A1.943,1.943,0,0,0,34.624,80.3a12.781,12.781,0,0,0,.752-4.792c0-1.848-.964-2.363-2.244-2.363-.3,0-.779.026-1.32.079.119-.62.238-1.254.317-1.663C32.182,71.272,32.248,70.928,32.314,70.651Zm4.554,1.333-1.228.528A15.754,15.754,0,0,1,37.924,77.4l1.307-.607A22.862,22.862,0,0,0,36.868,71.984Zm7.141-1.452-.33,1.254c1.016.264,3.92.871,5.214,1.043l.3-1.28A38.684,38.684,0,0,1,44.009,70.532ZM43.89,73.04l-1.4-.185a49.508,49.508,0,0,1-.673,5.425l1.214.29a2.686,2.686,0,0,1,.449-.7A4.955,4.955,0,0,1,47.375,76.2c1.267,0,2.178.7,2.178,1.676,0,1.742-2.059,2.838-6.138,2.323l.4,1.36c5.161.436,7.168-1.28,7.168-3.656,0-1.571-1.346-2.878-3.5-2.878a6.354,6.354,0,0,0-4.118,1.465C43.481,75.68,43.705,73.872,43.89,73.04Zm21,3.326a4.886,4.886,0,0,0-5.174-4.976,5.722,5.722,0,0,0-5.9,5.491c0,2.2,1.2,3.656,2.508,3.656s2.4-1.492,3.194-4.184a26.284,26.284,0,0,0,.792-3.709,3.51,3.51,0,0,1,3.194,3.683,3.8,3.8,0,0,1-3.194,3.749,8.158,8.158,0,0,1-1.175.185l.779,1.241C63.122,81.04,64.891,79.139,64.891,76.367Zm-9.742.383a4.412,4.412,0,0,1,3.762-4.079,21.015,21.015,0,0,1-.726,3.406c-.607,2.033-1.228,2.891-1.822,2.891C55.8,78.967,55.15,78.268,55.15,76.75Zm13.9-6.772a14.787,14.787,0,0,1-2.785,5.108,8.731,8.731,0,0,1,.607,1.294,13.03,13.03,0,0,0,1.1-1.452v7.128h1.175V72.842a20.064,20.064,0,0,0,1.043-2.534Zm6.257,8.4H73.471V76.631h1.835Zm1.386-3.947v-.911H74.857V72.09H73.88v1.426H72.112v.911H73.88v1.32H72.56v3.511h3.7V75.746h-1.4v-1.32Zm-5.056,5.742V71.734h5.438v8.435Zm-1.122-9.5V82.03h1.122v-.779h5.438v.66h1.162V70.664Zm11.062.95h2.957v2.218H81.576Zm1.346,4.567c.053-.422.079-.845.106-1.267h2.693V70.532H80.454v4.382h1.373c-.119,2.3-.409,4.858-2.178,6.283a3.074,3.074,0,0,1,.845.858,7.564,7.564,0,0,0,2.3-4.778h1.848c-.106,2.376-.238,3.313-.462,3.551-.092.132-.224.145-.436.145a13.3,13.3,0,0,1-1.412-.066,2.537,2.537,0,0,1,.343,1.082,9.956,9.956,0,0,0,1.6-.026,1.128,1.128,0,0,0,.9-.422c.356-.409.488-1.637.634-4.858.013-.158.013-.5.013-.5Zm5.161-4.673H86.9V78.8h1.188Zm1.967-1.32v10.3c0,.238-.092.317-.343.33s-1.1.013-1.993-.026a5.684,5.684,0,0,1,.436,1.254,7.725,7.725,0,0,0,2.482-.211c.462-.224.647-.581.647-1.346v-10.3ZM5.056,97.509c-.5.145-1,.277-1.492.409V95.634H5V94.5H3.564V91.938H2.35V94.5H.62v1.135H2.35v2.627c-.726.2-1.386.343-1.914.475l.317,1.188c.488-.132,1.03-.277,1.6-.449v3.194c0,.2-.066.251-.251.251-.158.013-.7.013-1.254-.013A4.794,4.794,0,0,1,1.2,104.03a4.465,4.465,0,0,0,1.848-.211c.383-.185.515-.515.515-1.148V99.119l1.65-.475Zm5.755,1.716v1.109H6.93V99.225ZM6.93,102.446V101.3h3.881v1.148ZM5.768,104.03H6.93v-.594h3.881v.528h1.214V98.208H5.768Zm2.191-7.88c-.805,0-.964-.079-.964-.541v-.792a26.5,26.5,0,0,0,4.831-1.294l-.911-.9A21.1,21.1,0,0,1,7,93.826V91.965H5.782v3.643c0,1.294.436,1.65,2.086,1.65h2.838c1.386,0,1.756-.462,1.914-2.244a3.84,3.84,0,0,1-1.109-.449c-.092,1.346-.2,1.584-.884,1.584Zm15.484-.581H19.351V95.08h4.092Zm0,1.1H19.351v-.515h4.092Zm0,1.1H19.351v-.515h4.092ZM18.2,94.473v3.881h6.442V94.473H21.608c.066-.172.145-.356.224-.554h3.881V93.06H23.6a8.977,8.977,0,0,0,.66-.937L23.113,91.9a10.657,10.657,0,0,1-.66,1.162H20.42a5.184,5.184,0,0,0-.686-1.148l-.99.224a6.334,6.334,0,0,1,.515.924H17.173v.858h3.511c-.04.185-.079.383-.132.554Zm-1.32-.726a8.455,8.455,0,0,0-1.808-1.61l-.805.673a8.3,8.3,0,0,1,1.756,1.69ZM22.9,99.806c1-.013,1.98-.04,2.666-.066a4.36,4.36,0,0,1,.33-.964c-1.742.106-5.148.145-6.692.092a2.928,2.928,0,0,1-2.534-1.1V95.265H13.913V96.2h1.65v1.742a19.752,19.752,0,0,1-1.742.964l.449,1c.7-.462,1.346-.884,1.98-1.307a3.751,3.751,0,0,0,2.97,1.175c.634.026,1.544.026,2.508.026v.686H13.86v.95h2.9l-.673.568a9.746,9.746,0,0,1,1.835,1.558l.9-.766a9.955,9.955,0,0,0-1.69-1.36h4.594v1.333c0,.172-.066.211-.277.224s-.937.013-1.69-.013a3.564,3.564,0,0,1,.383,1.043,7.169,7.169,0,0,0,2.178-.158c.462-.172.581-.475.581-1.069v-1.36h2.851v-.95H22.9ZM.62,121.832H4.105V120.71H.62Zm9.359-5.32h8.567v1.874H19.8v-3.036H14.916v-1.412H13.609v1.412H8.778v3.036h1.2Zm4.924,5.65h3.775v-1.148H14.9v-1.94h3.115V117.9H10.586v1.175h3.049v5.122a3.778,3.778,0,0,1-2.152-2.323,16.143,16.143,0,0,0,.317-1.729l-1.267-.119c-.277,2.31-.95,4.158-2.4,5.24a6.639,6.639,0,0,1,1.016.845,6.719,6.719,0,0,0,1.861-2.746c1.2,2.072,3.1,2.508,5.689,2.508H19.84a3.7,3.7,0,0,1,.462-1.241c-.752.026-2.97.026-3.538.026a13.792,13.792,0,0,1-1.861-.119Zm8.857-1.492h2.059v1.135H23.76Zm2.059-4.013v.99H23.76v-.99Zm-2.059,1.954h2.059v1.1H23.76Zm4.092,3.194h-.9v-5.148h.95v-1.069h-.95V114.07H25.819v1.518H23.76V114.07H22.651v1.518H21.582v1.069h1.069v5.148H21.424v1.069h6.428Zm-4.7,1.28a6.519,6.519,0,0,1-1.769,2.244,6.259,6.259,0,0,1,.977.726,9.231,9.231,0,0,0,1.954-2.653Zm1.9.475a13.658,13.658,0,0,1,1.373,2.006l.99-.594a12.6,12.6,0,0,0-1.426-1.927Zm4.528-3.023c.026-.422.026-.845.026-1.228v-.7h2.323v1.927Zm2.35-4.871v1.861H29.608v-1.861Zm1.188-1.109H28.446v4.752c0,1.888-.092,4.356-1.135,6.072a4.314,4.314,0,0,1,.977.713,10.493,10.493,0,0,0,1.214-4.448h2.429v2.93c0,.211-.079.264-.277.277-.172,0-.832.013-1.452-.013A4.211,4.211,0,0,1,30.558,126a4.584,4.584,0,0,0,2.006-.224c.409-.185.554-.541.554-1.188ZM36.34,123.6v-2.917h2.455V123.6Zm2.455-6.494v2.508H36.34v-2.508Zm3.736-1.135c.211-.581.383-1.188.541-1.8l-1.188-.277a12.605,12.605,0,0,1-1.967,4.633v-2.495H37.8c.211-.554.462-1.254.686-1.914l-1.333-.224a15.475,15.475,0,0,1-.462,2.138H35.218v9.649H36.34v-1h3.577v-6.059a6.476,6.476,0,0,1,.964.686,13.275,13.275,0,0,0,1.2-2.218H45.2c-.172,4.976-.343,6.97-.766,7.405a.592.592,0,0,1-.554.224c-.33,0-1.1-.013-1.94-.079a2.875,2.875,0,0,1,.4,1.188,14.178,14.178,0,0,0,1.993,0,1.472,1.472,0,0,0,1.148-.62c.528-.66.686-2.706.871-8.659.013-.158.013-.581.013-.581Zm1.69,5.953a23.7,23.7,0,0,0-1.993-2.944l-.964.541a21.493,21.493,0,0,1,1.927,3.049Zm9.134-7.471-1.452-.145a10.773,10.773,0,0,1-.383,2.257c-.462.04-.924.053-1.36.053-.528,0-1.162-.026-1.676-.079l.092,1.228c.528.026,1.082.04,1.584.04.317,0,.634-.013.964-.026a19.823,19.823,0,0,1-2.772,4.818l1.267.647a23.617,23.617,0,0,0,2.864-5.61,17.718,17.718,0,0,0,2.363-.475l-.04-1.214a12.621,12.621,0,0,1-1.94.449C53.064,115.654,53.249,114.915,53.354,114.453Zm-.713,9.148c0-.541.594-.937,1.465-.937a4.6,4.6,0,0,1,1.228.172c.013.172.013.33.013.449,0,.713-.33,1.267-1.333,1.267C53.117,124.551,52.642,124.168,52.642,123.6Zm3.815-5.056H55.163c.026.871.092,2.112.132,3.155a7.568,7.568,0,0,0-1.122-.092c-1.637,0-2.759.871-2.759,2.112,0,1.373,1.241,2.033,2.772,2.033,1.742,0,2.416-.911,2.416-2.033v-.37a10.3,10.3,0,0,1,1.98,1.478l.7-1.122a8.6,8.6,0,0,0-2.732-1.663c-.04-.752-.079-1.518-.092-1.954C56.443,119.562,56.43,119.1,56.456,118.545Zm2.482.5.752-1.1a23.366,23.366,0,0,0-3.168-1.769l-.673,1.016A16.785,16.785,0,0,1,58.938,119.047Zm4.554-4v1.36c.37-.026.845-.04,1.267-.04h5.122c.449,0,.977.013,1.307.04v-1.36a12.612,12.612,0,0,1-1.294.066H64.759A12.076,12.076,0,0,1,63.492,115.047Zm8.738,3.63-.937-.581a2.619,2.619,0,0,1-.845.119H63.69c-.383,0-.884-.04-1.4-.092V119.5c.5-.04,1.082-.053,1.4-.053h6.719a6.222,6.222,0,0,1-1.465,2.64,8.881,8.881,0,0,1-4.62,2.376l1.03,1.188a9.754,9.754,0,0,0,4.726-2.812,9.34,9.34,0,0,0,1.94-3.7A2.318,2.318,0,0,1,72.23,118.677Zm2.455,1.4.647,1.307a27.006,27.006,0,0,0,4.871-2.046v4.594a15.3,15.3,0,0,1-.079,1.558h1.637a9.926,9.926,0,0,1-.092-1.558v-5.478a22.267,22.267,0,0,0,3.551-2.891l-1.109-1.056a16.294,16.294,0,0,1-3.67,3.142A21.8,21.8,0,0,1,74.686,120.076ZM9.992,135.965l-.884.356c.277.422.62.977.871,1.465a4.78,4.78,0,0,1-.594.026H3c-.436,0-1.056-.053-1.439-.092V139.2c.343-.026.871-.053,1.426-.053H9.478a9.238,9.238,0,0,1-1.65,4.052,8.814,8.814,0,0,1-5.161,3.142L3.8,147.581A10.266,10.266,0,0,0,9.042,144a13.215,13.215,0,0,0,1.98-4.844,4.011,4.011,0,0,1,.238-.766l-.726-.475.5-.211A19.6,19.6,0,0,0,9.992,135.965Zm1.769-.343-.9.37a13.113,13.113,0,0,1,1.069,1.769l.9-.4C12.566,136.876,12.078,136.084,11.761,135.622Zm13.16,2.561-1.016-.647a4.815,4.815,0,0,1-1.016.079H16.315c-.581,0-1.122-.013-1.492-.04.026.317.053.66.053.977v2.812c0,.29-.026.594-.053.95h1.518a9.265,9.265,0,0,1-.04-.95v-2.455h6.864a9.873,9.873,0,0,1-1.228,4.224,8.338,8.338,0,0,1-4.884,3.274l1.148,1.175a9.5,9.5,0,0,0,5-3.749,12.888,12.888,0,0,0,1.5-4.924A4.059,4.059,0,0,1,24.922,138.182Zm2.759,2.93v1.637c.449-.04,1.241-.066,1.967-.066h7.181c.581,0,1.188.053,1.478.066v-1.637c-.33.026-.845.079-1.478.079H29.647C28.934,141.192,28.116,141.139,27.68,141.113ZM46.9,136.73l-1.531-.5a5.852,5.852,0,0,1-.488,1.188,11.2,11.2,0,0,1-4.145,4.369l1.162.871a13.785,13.785,0,0,0,3.353-3.234h4.118a9.912,9.912,0,0,1-2.006,3.894,10.576,10.576,0,0,1-5.293,3.3l1.228,1.1a11.9,11.9,0,0,0,5.28-3.656,13.064,13.064,0,0,0,2.323-4.488,4.517,4.517,0,0,1,.37-.805l-1.082-.66a3.1,3.1,0,0,1-.99.132H46.028c.066-.106.132-.224.185-.33C46.358,137.641,46.636,137.126,46.9,136.73Zm8.778,2.93v1.28c.277-.013,1.069-.04,1.478-.04h4.66v1.927H57.288c-.462,0-.99-.026-1.294-.04v1.254c.29-.026.832-.026,1.307-.026h4.514V146.1H56.641a10.634,10.634,0,0,1-1.109-.053v1.307c.224-.013.713-.04,1.109-.04h5.174c0,.211,0,.409-.013.528h1.32c-.013-.211-.026-.581-.026-.792v-6.587c0-.264,0-.607.013-.766-.185,0-.594.013-.9.013H57.156C56.747,139.714,55.981,139.7,55.678,139.661Zm16.83-.37-1.241.409a24.141,24.141,0,0,1,1.056,2.9l1.241-.449C73.392,141.575,72.745,139.846,72.508,139.291Zm4.818.845-1.452-.462a9.162,9.162,0,0,1-1.756,4.514,9,9,0,0,1-4.33,2.785l1.1,1.122a10.229,10.229,0,0,0,4.343-3.194,10.581,10.581,0,0,0,1.848-3.986C77.128,140.7,77.207,140.466,77.326,140.136Zm-7.894-.158-1.241.449a26.959,26.959,0,0,1,1.2,3.01l1.254-.462C70.4,142.248,69.736,140.585,69.432,139.978Zm20.394-2.548a.834.834,0,0,1,.818-.832.845.845,0,0,1,.832.832.834.834,0,0,1-.832.818A.823.823,0,0,1,89.826,137.43Zm-.7,0a1.638,1.638,0,0,0,.04.356,4.482,4.482,0,0,1-.568.026H82.2c-.436,0-1.056-.053-1.426-.092V139.2c.343-.026.871-.053,1.426-.053h6.494a9.564,9.564,0,0,1-1.65,4.052,8.857,8.857,0,0,1-5.161,3.142l1.135,1.241A10.266,10.266,0,0,0,88.255,144a13.448,13.448,0,0,0,1.98-4.844c.013-.079.04-.172.053-.251a1.639,1.639,0,0,0,.356.04,1.518,1.518,0,1,0-1.518-1.518ZM.634,165.238l1.241,1.28c.224-.3.528-.726.805-1.122.634-.779,1.65-2.178,2.231-2.9.422-.515.673-.607,1.188-.04.62.7,1.61,1.967,2.455,2.93.871,1.016,2.046,2.323,3.023,3.247l1.069-1.228c-1.214-1.082-2.455-2.389-3.274-3.287-.818-.871-1.848-2.2-2.68-3.036-.911-.911-1.676-.805-2.508.158-.805.95-1.861,2.389-2.534,3.062A8.124,8.124,0,0,1,.634,165.238Zm24.658-.871a4.886,4.886,0,0,0-5.174-4.976,5.722,5.722,0,0,0-5.9,5.491c0,2.2,1.2,3.656,2.508,3.656s2.4-1.492,3.194-4.184a26.285,26.285,0,0,0,.792-3.709,3.51,3.51,0,0,1,3.194,3.683,3.8,3.8,0,0,1-3.194,3.749,8.159,8.159,0,0,1-1.175.185l.779,1.241C23.522,169.04,25.291,167.139,25.291,164.367Zm-9.742.383a4.412,4.412,0,0,1,3.762-4.079,21.015,21.015,0,0,1-.726,3.406c-.607,2.033-1.228,2.891-1.822,2.891C16.2,166.967,15.55,166.268,15.55,164.75Zm15.484-1.214-1.333.4v-2.3h1.518V160.5H29.7v-2.548H28.512V160.5H26.994v1.135h1.518v2.627c-.647.185-1.228.356-1.7.475l.277,1.188,1.426-.449v3.155c0,.185-.066.238-.238.238-.145,0-.647,0-1.162-.013a4.679,4.679,0,0,1,.356,1.188,3.527,3.527,0,0,0,1.742-.251c.356-.185.488-.528.488-1.162v-3.511c.5-.158,1.016-.317,1.5-.475Zm6.151,2.165v2.627H33.145V165.7Zm-5.227,4.33h1.188v-.594h4.039v.541h1.228V164.6H31.957Zm-.383-11.458v1.109h2.072a4.006,4.006,0,0,1-2.521,3.59,3.126,3.126,0,0,1,.752.964c2.1-.964,2.746-2.587,3.01-4.554h2.482c-.106,1.954-.224,2.759-.422,2.97a.491.491,0,0,1-.422.145c-.211,0-.726,0-1.267-.053A2.815,2.815,0,0,1,35.6,163.9a12.86,12.86,0,0,0,1.5-.026,1.147,1.147,0,0,0,.871-.436c.343-.4.475-1.518.607-4.382.013-.158.013-.488.013-.488Zm11.312-.62a9.627,9.627,0,0,1-2.719,2.64,6.273,6.273,0,0,1,.62,1.03,13.385,13.385,0,0,0,3.26-3.194Zm.277,2.878A11.776,11.776,0,0,1,40,164.3a9.757,9.757,0,0,1,.62,1.228,12.171,12.171,0,0,0,1.373-1.28v5.795h1.175v-7.168a16.188,16.188,0,0,0,1.069-1.61Zm1.808,5.557a10.914,10.914,0,0,1,1.5,2.323l1.069-.607a11.628,11.628,0,0,0-1.571-2.244Zm7.3-3.181v-1.122H48.708v-1.426h2.917v-1.122H48.708v-1.558H47.494v1.558H44.708v1.122h2.785v1.426H43.943v1.122H49.3v1.28H44.088v1.122H49.3v3.036c0,.185-.066.238-.277.251s-.924.013-1.637-.026a4.889,4.889,0,0,1,.383,1.175,6.041,6.041,0,0,0,2.152-.211c.462-.172.594-.5.594-1.162v-3.062H52.18v-1.122H50.516v-1.28Z" transform="translate(-289 3961)" fill="#3f3f3f"/>
    <path id="パス_58" data-name="パス 58" d="M.62,11.832H4.105V10.71H.62ZM10.586,8.7A16,16,0,0,0,14.23,5.1a17.276,17.276,0,0,0,3.8,3.6Zm4.3,3.973h3.841V11.608H14.89V9.786h3.3V8.809a16.533,16.533,0,0,0,1.452.924,7.2,7.2,0,0,1,.805-1.082A15.62,15.62,0,0,1,14.8,3.886H13.543a15.028,15.028,0,0,1-5.4,4.91,4.837,4.837,0,0,1,.779.99,15.576,15.576,0,0,0,1.518-.977v.977H13.6v1.822H9.821v1.069H13.6v1.914H8.752V15.7H19.892V14.591h-5ZM27.72,4.532H26.176a8.4,8.4,0,0,1,.092,1.135q0,.673-.04,1.267H24.1c-.515,0-1.109-.04-1.61-.079V8.228c.5-.04,1.122-.053,1.61-.053H26.11a8.2,8.2,0,0,1-2.416,5.188,7.044,7.044,0,0,1-1.518,1.109l1.214.99c2.27-1.6,3.577-3.617,4.066-7.286h3.379a19.094,19.094,0,0,1-.62,5.333.7.7,0,0,1-.752.449,15.112,15.112,0,0,1-1.914-.158l.158,1.386c.673.053,1.439.092,2.152.092a1.472,1.472,0,0,0,1.531-.9c.581-1.294.752-5.069.792-6.4.013-.158.053-.449.092-.673l-.924-.449a6,6,0,0,1-.911.079H27.588c.026-.409.053-.845.066-1.294C27.667,5.324,27.694,4.836,27.72,4.532Zm16.764.356H42.913A10.206,10.206,0,0,1,42.992,6.1v2.27c0,2.31-.172,3.34-1.1,4.4a6.157,6.157,0,0,1-3.168,1.716l1.1,1.148a7.209,7.209,0,0,0,3.155-1.927c.977-1.109,1.452-2.231,1.452-5.254V6.1C44.431,5.628,44.458,5.232,44.484,4.889Zm-6.125.106H36.841a8.526,8.526,0,0,1,.053.977v4.422c0,.383-.04.845-.053,1.069h1.518c-.026-.264-.053-.726-.053-1.069V5.971C38.306,5.6,38.333,5.272,38.359,4.994ZM52.3,5.628c.04.185.132.66.264,1.32-1.2.185-2.3.343-2.785.4-.409.04-.779.066-1.148.092l.277,1.452c.422-.106.739-.172,1.135-.238.462-.079,1.558-.264,2.772-.462.145.766.3,1.61.462,2.429-1.426.224-2.772.436-3.419.528-.37.053-.924.119-1.254.132l.3,1.412c.29-.079.686-.158,1.228-.251.62-.119,1.954-.343,3.392-.581.224,1.228.422,2.218.475,2.548.079.4.119.818.185,1.294l1.518-.277c-.132-.4-.251-.858-.343-1.241-.079-.356-.264-1.346-.5-2.534,1.228-.2,2.389-.383,3.076-.488.5-.079.977-.172,1.28-.2l-.277-1.386c-.3.092-.739.185-1.241.29-.634.119-1.808.317-3.089.528-.158-.818-.317-1.663-.462-2.416,1.188-.185,2.3-.356,2.878-.449.37-.053.818-.119,1.056-.145L57.829,6c-.264.079-.673.172-1.082.251-.515.106-1.637.29-2.838.488-.132-.686-.224-1.188-.251-1.346-.066-.29-.106-.7-.145-.95l-1.478.238A7.519,7.519,0,0,1,52.3,5.628ZM70.33,8.717l-1-.488a2.674,2.674,0,0,1-.792.106H64.786a11.42,11.42,0,0,1-1.162-.066V9.641c.356-.013.779-.04,1.175-.04h3.92c-.04.739-.383,3.01-.568,4.132H63.584a10.724,10.724,0,0,1-1.188-.066v1.36c.449-.013.752-.026,1.188-.026H70.7c.317,0,.871.013,1.122.026V13.68c-.3.026-.845.053-1.148.053H69.564c.185-1.228.554-3.7.66-4.541C70.25,9.06,70.29,8.862,70.33,8.717Zm6.362-3.67v1.36c.37-.026.845-.04,1.267-.04h5.122c.449,0,.977.013,1.307.04V5.047a12.611,12.611,0,0,1-1.294.066H77.959A12.075,12.075,0,0,1,76.692,5.047Zm8.738,3.63L84.493,8.1a2.619,2.619,0,0,1-.845.119H76.89c-.383,0-.884-.04-1.4-.092V9.5c.5-.04,1.082-.053,1.4-.053h6.719a6.222,6.222,0,0,1-1.465,2.64,8.881,8.881,0,0,1-4.62,2.376l1.03,1.188a9.754,9.754,0,0,0,4.726-2.812,9.34,9.34,0,0,0,1.94-3.7A2.318,2.318,0,0,1,85.43,8.677ZM7.075,27.113l-1.65-.343a8.332,8.332,0,0,1-.29,1.373c-.37,1.333-1.624,5.28-2.363,7.168-.2.013-.383.013-.541.026-.4.026-.911.026-1.32.026l.238,1.531c.4-.053.832-.119,1.162-.158,1.716-.158,5.94-.62,8.039-.871.277.607.515,1.188.686,1.65l1.4-.634a38.687,38.687,0,0,0-2.9-5.425l-1.28.554a17.77,17.77,0,0,1,1.5,2.574c-1.412.185-3.643.436-5.438.594.66-1.742,1.861-5.478,2.257-6.732C6.772,27.866,6.93,27.47,7.075,27.113Zm18.216,5.254a4.886,4.886,0,0,0-5.174-4.976,5.722,5.722,0,0,0-5.9,5.491c0,2.2,1.2,3.656,2.508,3.656s2.4-1.492,3.194-4.184a26.284,26.284,0,0,0,.792-3.709,3.51,3.51,0,0,1,3.194,3.683,3.8,3.8,0,0,1-3.194,3.749,8.158,8.158,0,0,1-1.175.185l.779,1.241C23.522,37.04,25.291,35.139,25.291,32.367Zm-9.742.383a4.412,4.412,0,0,1,3.762-4.079,21.015,21.015,0,0,1-.726,3.406c-.607,2.033-1.228,2.891-1.822,2.891C16.2,34.967,15.55,34.268,15.55,32.75Zm23.285-4.673L38,27.3a6.793,6.793,0,0,1-1.1.092H29.528a11.829,11.829,0,0,1-1.558-.119v1.465c.568-.04,1.03-.079,1.558-.079h7.234a8.081,8.081,0,0,1-2.693,2.732l1.1.884A13.072,13.072,0,0,0,38.4,28.631C38.5,28.473,38.716,28.222,38.834,28.077ZM33.5,29.832H32a5.864,5.864,0,0,1,.079,1.056c0,2.191-.3,3.854-2.191,5.069a5.011,5.011,0,0,1-1.267.647l1.214.99C33.3,35.812,33.5,33.278,33.5,29.832Zm12.738-3.1-1.531-.5a5.852,5.852,0,0,1-.488,1.188,11.2,11.2,0,0,1-4.145,4.369l1.162.871a13.785,13.785,0,0,0,3.353-3.234h4.118A9.912,9.912,0,0,1,46.7,33.317a10.576,10.576,0,0,1-5.293,3.3l1.228,1.1a11.9,11.9,0,0,0,5.28-3.656,13.064,13.064,0,0,0,2.323-4.488,4.518,4.518,0,0,1,.37-.805l-1.082-.66a3.1,3.1,0,0,1-.99.132H45.368c.066-.106.132-.224.185-.33C45.7,27.641,45.976,27.126,46.24,26.73Zm9.794,8.54c0,1.412.449,2.1,3.155,2.1a30.644,30.644,0,0,0,4.118-.277l.053-1.426a20.918,20.918,0,0,1-4.145.409c-1.518,0-1.808-.29-1.808-1.162V31.179c2.138-.436,4.277-.858,4.58-.924A12.356,12.356,0,0,1,59.743,33.2l1.148.673a18.964,18.964,0,0,0,2.719-3.841c.106-.2.264-.449.37-.607l-.99-.779a2.992,2.992,0,0,1-.805.277c-.568.132-2.68.554-4.778.964V28.05a9.11,9.11,0,0,1,.106-1.346H55.942a8.986,8.986,0,0,1,.092,1.346v2.086c-1.36.251-2.561.462-3.168.541l.251,1.386c.541-.119,1.65-.356,2.917-.607ZM76.1,28.116l-.858-.634a4,4,0,0,1-1.148.132h-4.9a14.123,14.123,0,0,1-1.439-.092v1.492c.211-.013.924-.079,1.439-.079h4.844a10.86,10.86,0,0,1-2.1,3.485,14.832,14.832,0,0,1-5.425,3.868l1.069,1.122a17.328,17.328,0,0,0,5.082-3.8,29.624,29.624,0,0,1,3.5,3.854l1.162-1.03a35.086,35.086,0,0,0-3.775-3.868A18.067,18.067,0,0,0,75.715,28.8,4.556,4.556,0,0,1,76.1,28.116Zm6.626-1.492-1.307.541c.62,1.412,1.28,2.9,1.888,4.013-1.346.95-2.244,2.033-2.244,3.432,0,2.112,1.874,2.838,4.422,2.838a25.2,25.2,0,0,0,4.2-.317l.013-1.5a19.665,19.665,0,0,1-4.264.475c-1.967,0-2.957-.607-2.957-1.637,0-.964.739-1.8,1.9-2.561,1.254-.818,3.01-1.637,3.881-2.086.422-.211.792-.409,1.135-.62L88.664,28a7.319,7.319,0,0,1-1.056.7c-.686.383-1.993,1.03-3.155,1.729A30.842,30.842,0,0,1,82.724,26.625ZM3,47.978A15.34,15.34,0,0,1,.277,53.192a9.5,9.5,0,0,1,.607,1.294A11.782,11.782,0,0,0,1.94,53.034v7H3.1V50.9a24.184,24.184,0,0,0,1.03-2.6ZM6.27,52.756h4.052v.5H6.27Zm4.052-2.125v.488H6.27v-.488Zm0,1.544H6.27v-.5h4.052ZM4.976,53.984H7.405l-.04.026a5.238,5.238,0,0,1,1.267,1.082l.739-.475a4.093,4.093,0,0,0-.686-.634H11.55v.845c-.211-.2-.449-.409-.66-.581l-.752.422a7.144,7.144,0,0,1,1.412,1.544l.805-.449a4.937,4.937,0,0,0-.581-.713h.884v-1.8H11.471V49.971H8.58c.079-.185.158-.383.238-.581h3.577V48.48H4.316v.911H7.524c-.026.2-.079.4-.119.581H5.161v3.287H3.907v1.8H4.95a2.931,2.931,0,0,1-.739.554l.752.607a5.17,5.17,0,0,0,1.412-1.478L5.584,54.3a4.918,4.918,0,0,1-.607.726Zm4.871,3.26a6.129,6.129,0,0,1-1.558.9,5.514,5.514,0,0,1-1.531-.9Zm.95-.779-.211.053H7.55a6.374,6.374,0,0,0,.528-.5H9.412c.726,0,.977-.185,1.056-.95a2.886,2.886,0,0,1-.805-.264c-.04.462-.106.528-.4.528H7.854c-.4,0-.475-.026-.475-.29v-.766h-1v.766c0,.488.106.739.436.871a8.331,8.331,0,0,1-3.1,1.676,2.719,2.719,0,0,1,.7.752,12.872,12.872,0,0,0,1.412-.647,7.088,7.088,0,0,0,1.162.884,21.49,21.49,0,0,1-3.3.607,3.909,3.909,0,0,1,.607.884,19.183,19.183,0,0,0,3.92-.884,14.745,14.745,0,0,0,3.92.9,4.764,4.764,0,0,1,.673-1,17.717,17.717,0,0,1-3.221-.5,5.6,5.6,0,0,0,1.967-1.7Zm11.8,2.218c-.449,0-.528-.066-.528-.475V54.644h3.524V53.456H20.434V51.027h4.184V49.852H20.434V47.925H19.193v1.927H17.134c.172-.488.317-.977.449-1.426l-1.254-.238a10.889,10.889,0,0,1-1.822,4.184,6.628,6.628,0,0,1,1.082.581,9.913,9.913,0,0,0,1.082-1.927h2.521v2.429H14.045v1.188h3.274c-.224,1.967-.766,3.564-3.472,4.4a4.043,4.043,0,0,1,.766,1.082c3-1.1,3.709-3.036,4-5.478H20.83v3.564c0,1.241.317,1.637,1.624,1.637h1.716c1.122,0,1.452-.541,1.571-2.561a3.822,3.822,0,0,1-1.109-.5c-.053,1.637-.132,1.9-.568,1.9Zm13.464-5.65v-.449h1.254c.634,0,1.1.013,1.307.04v-1.4a8.772,8.772,0,0,1-1.32.079H36.062V49.773a8.606,8.606,0,0,1,.079-1.148H34.65a9.114,9.114,0,0,1,.066,1.148V51.3H31.231V49.786a7.114,7.114,0,0,1,.079-1.056H29.819a7.244,7.244,0,0,1,.079,1.056V51.3H28.6a8.206,8.206,0,0,1-1.373-.106v1.439c.211-.026.752-.053,1.373-.053H29.9v1.98c0,.554-.053,1.1-.066,1.28H31.3a11.737,11.737,0,0,1-.066-1.28v-1.98h3.485v.528c0,3.5-1.162,4.633-3.63,5.544l1.122,1.056C35.3,58.327,36.062,56.439,36.062,53.034Zm13.622-3.854a.783.783,0,0,1,.779-.792.792.792,0,1,1,0,1.584A.783.783,0,0,1,49.685,49.179Zm-.7,0A1.485,1.485,0,1,0,50.464,47.7,1.476,1.476,0,0,0,48.985,49.179Zm-2.033-.462H45.395a5.624,5.624,0,0,1,.106,1.03v1.228H41.963a10.96,10.96,0,0,1-1.175-.079v1.386c.356-.026.779-.04,1.188-.04H45.5V57.9c-.013.356-.158.488-.5.488a9.011,9.011,0,0,1-1.5-.145l.119,1.307a19.775,19.775,0,0,0,1.993.092c.871,0,1.241-.409,1.241-1.122V52.242h3.326c.33,0,.779,0,1.162.026V50.9a8.783,8.783,0,0,1-1.175.079H46.847V49.76A7.091,7.091,0,0,1,46.952,48.717Zm-3,5.491-1.175-.568a13.7,13.7,0,0,1-2.495,3.432l1.135.779A19.723,19.723,0,0,0,43.956,54.208Zm5.584-.581-1.135.62A22.857,22.857,0,0,1,50.6,57.772l1.214-.686A28.364,28.364,0,0,0,49.54,53.628Zm4.541-.515V54.75c.449-.04,1.241-.066,1.967-.066h7.181c.581,0,1.188.053,1.478.066V53.113c-.33.026-.845.079-1.478.079H56.047C55.334,53.192,54.516,53.139,54.08,53.113Zm16.236,4.673a13.818,13.818,0,0,1-.106,1.69h1.624a15.467,15.467,0,0,1-.106-1.69V53.707a34.563,34.563,0,0,1,4.99,2.059l.594-1.439a44.744,44.744,0,0,0-5.584-2.112V50.156c0-.462.053-1.043.092-1.478H70.2a9.556,9.556,0,0,1,.119,1.478ZM.62,77.832H4.105V76.71H.62Zm12.659,2.9a10.93,10.93,0,0,0-2.02-1.769l-.924.66A9.959,9.959,0,0,1,12.3,81.488Zm-2.468-5.465h2.825v.9H10.811Zm0-1.729h2.825v.911H10.811Zm6.943,0v.911H14.837v-.911Zm0,2.627H14.837v-.9h2.917Zm2.429,1.756H17.266V77.04h1.69V72.684H14.837v-.752h5.042V70.889H14.837v-.95h-1.2v.95H8.712v1.043h4.924v.752H9.662V77.04h6.4v.884H8.4v1.043h7.669v1.8c0,.185-.066.238-.277.251s-1.043,0-1.835-.026a4.638,4.638,0,0,1,.4,1.082,8.583,8.583,0,0,0,2.31-.172c.475-.172.607-.475.607-1.1V78.967h2.917Zm4.462-7.96a14.628,14.628,0,0,1-3.445,5.2,7.393,7.393,0,0,1,.739,1.254,14.277,14.277,0,0,0,1.346-1.531V82.03H24.5V73.08a21.115,21.115,0,0,0,1.346-2.746Zm8.87,6.679V75.456H29.99V72.011a26.674,26.674,0,0,0,3.076-.779l-.9-1.043A35.7,35.7,0,0,1,25.41,71.6a4.7,4.7,0,0,1,.37,1.043c.95-.106,1.967-.238,2.97-.409v3.221H25.014v1.188H28.75V80.38H25.516v1.175H33.33V80.38H29.99V76.644ZM38.4,79.786a13.819,13.819,0,0,1-.106,1.69h1.624a15.465,15.465,0,0,1-.106-1.69V75.707a34.563,34.563,0,0,1,4.99,2.059l.594-1.439a44.743,44.743,0,0,0-5.584-2.112V72.156c0-.462.053-1.043.092-1.478H38.28a9.556,9.556,0,0,1,.119,1.478Zm11.656.752.977.832a2.737,2.737,0,0,1,.66-.277,15.842,15.842,0,0,0,7.7-4.739l-.752-1.162a14.657,14.657,0,0,1-7.022,4.435v-7.22a8.621,8.621,0,0,1,.106-1.32H50.081A7.812,7.812,0,0,1,50.2,72.42V79.8A1.457,1.457,0,0,1,50.054,80.538Zm11.708-5.425V76.75c.449-.04,1.241-.066,1.967-.066H70.91c.581,0,1.188.053,1.478.066V75.113c-.33.026-.845.079-1.478.079H63.73C63.017,75.192,62.2,75.139,61.763,75.113ZM6.244,94.1v1.624H2.561a11.662,11.662,0,0,1-1.333-.079V97.1a12.914,12.914,0,0,1,1.36-.053H6.244a5.791,5.791,0,0,1-3.577,5.6l1.294.964a7.034,7.034,0,0,0,3.709-6.56h3.26c.462,0,1.043.013,1.28.04V95.661a9.693,9.693,0,0,1-1.267.066H7.669V94.1a12.128,12.128,0,0,1,.092-1.426H6.1A6.858,6.858,0,0,1,6.244,94.1Zm8.237,3.01V98.75c.449-.04,1.241-.066,1.967-.066h7.181c.581,0,1.188.053,1.478.066V97.113c-.33.026-.845.079-1.478.079H16.447C15.734,97.192,14.916,97.139,14.48,97.113Zm24.011,1.254a4.886,4.886,0,0,0-5.174-4.976,5.722,5.722,0,0,0-5.9,5.491c0,2.2,1.2,3.656,2.508,3.656s2.4-1.492,3.194-4.184a26.285,26.285,0,0,0,.792-3.709,3.51,3.51,0,0,1,3.194,3.683,3.8,3.8,0,0,1-3.194,3.749,8.159,8.159,0,0,1-1.175.185l.779,1.241C36.722,103.04,38.491,101.139,38.491,98.367Zm-9.742.383a4.412,4.412,0,0,1,3.762-4.079,21.015,21.015,0,0,1-.726,3.406c-.607,2.033-1.228,2.891-1.822,2.891C29.4,100.967,28.75,100.268,28.75,98.75Zm13.9-6.772a14.788,14.788,0,0,1-2.785,5.108,8.731,8.731,0,0,1,.607,1.294,13.03,13.03,0,0,0,1.1-1.452v7.128h1.175V94.842a20.062,20.062,0,0,0,1.043-2.534Zm6.257,8.4H47.071V98.631h1.835Zm1.386-3.947v-.911H48.457V94.09H47.48v1.426H45.712v.911H47.48v1.32H46.16v3.511h3.7V97.746h-1.4v-1.32Zm-5.056,5.742V93.734h5.438v8.435Zm-1.122-9.5V104.03h1.122v-.779h5.438v.66h1.162V92.664Zm11.062.95h2.957v2.218H55.176Zm1.346,4.567c.053-.422.079-.845.106-1.267h2.693V92.532H54.054v4.382h1.373c-.119,2.3-.409,4.858-2.178,6.283a3.074,3.074,0,0,1,.845.858,7.564,7.564,0,0,0,2.3-4.778h1.848c-.106,2.376-.238,3.313-.462,3.551-.092.132-.224.145-.436.145a13.3,13.3,0,0,1-1.412-.066,2.537,2.537,0,0,1,.343,1.082,9.956,9.956,0,0,0,1.6-.026,1.128,1.128,0,0,0,.9-.422c.356-.409.488-1.637.634-4.858.013-.158.013-.5.013-.5Zm5.161-4.673H60.5V100.8h1.188Zm1.967-1.32v10.3c0,.238-.092.317-.343.33s-1.1.013-1.993-.026a5.684,5.684,0,0,1,.436,1.254,7.725,7.725,0,0,0,2.482-.211c.462-.224.647-.581.647-1.346v-10.3Zm7.405,5.32c-.5.145-1,.277-1.492.409V95.634H71V94.5H69.564V91.938H68.35V94.5H66.62v1.135H68.35v2.627c-.726.2-1.386.343-1.914.475l.317,1.188c.488-.132,1.03-.277,1.6-.449v3.194c0,.2-.066.251-.251.251-.158.013-.7.013-1.254-.013a4.8,4.8,0,0,1,.356,1.122,4.465,4.465,0,0,0,1.848-.211c.383-.185.515-.515.515-1.148V99.119l1.65-.475Zm5.755,1.716v1.109H72.93V99.225Zm-3.881,3.221V101.3h3.881v1.148Zm-1.162,1.584H72.93v-.594h3.881v.528h1.214V98.208H71.768Zm2.191-7.88c-.805,0-.964-.079-.964-.541v-.792a26.5,26.5,0,0,0,4.831-1.294l-.911-.9a21.1,21.1,0,0,1-3.92,1.2V91.965H71.782v3.643c0,1.294.436,1.65,2.086,1.65h2.838c1.386,0,1.756-.462,1.914-2.244a3.84,3.84,0,0,1-1.109-.449c-.092,1.346-.2,1.584-.884,1.584Zm15.484-.581H85.351V95.08h4.092Zm0,1.1H85.351v-.515h4.092Zm0,1.1H85.351v-.515h4.092ZM84.2,94.473v3.881h6.442V94.473H87.608c.066-.172.145-.356.224-.554h3.881V93.06H89.6a8.977,8.977,0,0,0,.66-.937L89.113,91.9a10.658,10.658,0,0,1-.66,1.162H86.42a5.184,5.184,0,0,0-.686-1.148l-.99.224a6.334,6.334,0,0,1,.515.924H83.173v.858h3.511c-.04.185-.079.383-.132.554Zm-1.32-.726a8.455,8.455,0,0,0-1.808-1.61l-.805.673a8.3,8.3,0,0,1,1.756,1.69ZM88.9,99.806c1-.013,1.98-.04,2.666-.066a4.36,4.36,0,0,1,.33-.964c-1.742.106-5.148.145-6.692.092a2.928,2.928,0,0,1-2.534-1.1V95.265H79.913V96.2h1.65v1.742a19.753,19.753,0,0,1-1.742.964l.449,1c.7-.462,1.346-.884,1.98-1.307a3.751,3.751,0,0,0,2.97,1.175c.634.026,1.544.026,2.508.026v.686H79.86v.95h2.9l-.673.568a9.746,9.746,0,0,1,1.835,1.558l.9-.766a9.955,9.955,0,0,0-1.69-1.36h4.594v1.333c0,.172-.066.211-.277.224s-.937.013-1.69-.013a3.564,3.564,0,0,1,.383,1.043,7.169,7.169,0,0,0,2.178-.158c.462-.172.581-.475.581-1.069v-1.36h2.851v-.95H88.9ZM.62,121.832H4.105V120.71H.62Zm14.494-7.5h-1.5a8.018,8.018,0,0,1,.079,1.188v.779H11.233c-.449,0-1.188-.026-1.637-.079v1.373c.409-.026,1.188-.053,1.663-.053h5.174a9.9,9.9,0,0,1-2.482,2.218A16.178,16.178,0,0,1,8.58,121.99l.805,1.228a21.381,21.381,0,0,0,4.277-1.729v2.6a13.742,13.742,0,0,1-.092,1.558h1.5c-.026-.409-.066-1.069-.066-1.558v-3.458a17.755,17.755,0,0,0,2.9-2.68c.238-.264.581-.634.858-.924L17.9,116.2a3.9,3.9,0,0,1-.937.106H15.035v-.779A10.536,10.536,0,0,1,15.114,114.334Zm4.092,9.042.871-1.148a31.559,31.559,0,0,0-3.181-1.9l-.858.99A22.723,22.723,0,0,1,19.206,123.376Zm8.184-6.085-1.241.409a24.141,24.141,0,0,1,1.056,2.9l1.241-.449C28.274,119.575,27.628,117.846,27.39,117.291Zm4.818.845-1.452-.462A9.162,9.162,0,0,1,29,122.188a9,9,0,0,1-4.33,2.785l1.1,1.122a10.229,10.229,0,0,0,4.343-3.194,10.581,10.581,0,0,0,1.848-3.986C32.01,118.7,32.089,118.466,32.208,118.136Zm-7.894-.158-1.241.449a26.959,26.959,0,0,1,1.2,3.01l1.254-.462C25.278,120.248,24.618,118.585,24.314,117.978ZM38.4,123.786a13.819,13.819,0,0,1-.106,1.69h1.624a15.465,15.465,0,0,1-.106-1.69v-4.079a34.563,34.563,0,0,1,4.99,2.059l.594-1.439a44.743,44.743,0,0,0-5.584-2.112v-2.059c0-.462.053-1.043.092-1.478H38.28a9.556,9.556,0,0,1,.119,1.478ZM59,116.182l-1.016-.647a4.814,4.814,0,0,1-1.016.079H50.4c-.581,0-1.122-.013-1.492-.04.026.317.053.66.053.977v2.812c0,.29-.026.594-.053.95h1.518a9.265,9.265,0,0,1-.04-.95v-2.455h6.864a9.873,9.873,0,0,1-1.228,4.224,8.338,8.338,0,0,1-4.884,3.274l1.148,1.175a9.5,9.5,0,0,0,5-3.749,12.888,12.888,0,0,0,1.5-4.924A4.059,4.059,0,0,1,59,116.182Zm2.759,2.93v1.637c.449-.04,1.241-.066,1.967-.066H70.91c.581,0,1.188.053,1.478.066v-1.637c-.33.026-.845.079-1.478.079H63.73C63.017,119.192,62.2,119.139,61.763,119.113ZM78.7,115.628c.04.185.132.66.264,1.32-1.2.185-2.3.343-2.785.4-.409.04-.779.066-1.148.092l.277,1.452c.422-.106.739-.172,1.135-.238.462-.079,1.558-.264,2.772-.462.145.766.3,1.61.462,2.429-1.426.224-2.772.436-3.419.528-.37.053-.924.119-1.254.132l.3,1.412c.29-.079.686-.158,1.228-.251.62-.119,1.954-.343,3.392-.581.224,1.228.422,2.218.475,2.548.079.4.119.818.185,1.294l1.518-.277c-.132-.4-.251-.858-.343-1.241-.079-.356-.264-1.346-.5-2.534,1.228-.2,2.389-.383,3.076-.488.5-.079.977-.172,1.28-.2l-.277-1.386c-.3.092-.739.185-1.241.29-.634.119-1.808.317-3.089.528-.158-.818-.317-1.663-.462-2.416,1.188-.185,2.3-.356,2.878-.449.37-.053.818-.119,1.056-.145L84.229,116c-.264.079-.673.172-1.082.251-.515.106-1.637.29-2.838.488-.132-.686-.224-1.188-.251-1.346-.066-.29-.106-.7-.145-.95l-1.478.238A7.519,7.519,0,0,1,78.7,115.628ZM3.076,137.166l-.964,1.03a28.631,28.631,0,0,1,3.3,2.8l1.043-1.069A27.7,27.7,0,0,0,3.076,137.166ZM1.716,146l.884,1.36a14.554,14.554,0,0,0,5.056-1.967,13.5,13.5,0,0,0,4.633-4.778l-.805-1.439a12.568,12.568,0,0,1-4.58,4.976A13.716,13.716,0,0,1,1.716,146Zm21.661-9.662-.845.356a15.756,15.756,0,0,1,1.043,1.822l.871-.37A19.13,19.13,0,0,0,23.377,136.334Zm1.492-.568-.845.356a13.248,13.248,0,0,1,1.082,1.822l.858-.383A15.6,15.6,0,0,0,24.869,135.767Zm-4.844,1.28-1.531-.5A6.184,6.184,0,0,1,18,137.734,11.29,11.29,0,0,1,13.86,142.1l1.162.858a13.676,13.676,0,0,0,3.34-3.221h4.132a9.912,9.912,0,0,1-2.006,3.894,10.565,10.565,0,0,1-5.293,3.287l1.228,1.109a12,12,0,0,0,5.28-3.656,13.064,13.064,0,0,0,2.323-4.488,4.518,4.518,0,0,1,.37-.805l-1.082-.66a3.524,3.524,0,0,1-.99.132H19.14c.079-.119.132-.224.2-.343C19.483,137.945,19.76,137.443,20.024,137.047Zm7.379,5.029.647,1.307a27.007,27.007,0,0,0,4.871-2.046v4.594a15.3,15.3,0,0,1-.079,1.558h1.637a9.926,9.926,0,0,1-.092-1.558v-5.478a22.267,22.267,0,0,0,3.551-2.891l-1.109-1.056a16.294,16.294,0,0,1-3.67,3.142A21.8,21.8,0,0,1,27.4,142.076Zm21.424-4.118-.924.4a14.371,14.371,0,0,1,1.214,2.125l.95-.422C49.764,139.45,49.17,138.473,48.827,137.958Zm1.729-.686-.924.422A12.01,12.01,0,0,1,50.9,139.78l.937-.449A18.23,18.23,0,0,0,50.556,137.272ZM40.194,143.4l1.254,1.28c.211-.3.515-.726.792-1.109.581-.726,1.61-2.112,2.191-2.825.409-.515.673-.554,1.148-.092.528.515,1.729,1.808,2.495,2.693.818.95,1.954,2.31,2.878,3.419l1.148-1.214c-1.016-1.1-2.35-2.534-3.247-3.485-.779-.832-1.861-1.967-2.693-2.746-.95-.911-1.65-.766-2.389.106-.858,1.03-1.954,2.429-2.574,3.049A12.772,12.772,0,0,1,40.194,143.4Zm15.682-6.23-.964,1.03a28.631,28.631,0,0,1,3.3,2.8l1.043-1.069A27.7,27.7,0,0,0,55.876,137.166ZM54.516,146l.884,1.36a14.554,14.554,0,0,0,5.056-1.967,13.5,13.5,0,0,0,4.633-4.778l-.805-1.439a12.568,12.568,0,0,1-4.58,4.976A13.716,13.716,0,0,1,54.516,146Zm15.8-.211a13.818,13.818,0,0,1-.106,1.69h1.624a15.468,15.468,0,0,1-.106-1.69v-4.079a34.562,34.562,0,0,1,4.99,2.059l.594-1.439a44.746,44.746,0,0,0-5.584-2.112v-2.059c0-.462.053-1.043.092-1.478H70.2a9.556,9.556,0,0,1,.119,1.478Zm9.517-2.548,1.241,1.28c.224-.3.528-.726.805-1.122.634-.779,1.65-2.178,2.231-2.9.422-.515.673-.607,1.188-.04.62.7,1.61,1.967,2.455,2.93.871,1.016,2.046,2.323,3.023,3.247l1.069-1.228c-1.214-1.082-2.455-2.389-3.274-3.287-.818-.871-1.848-2.2-2.68-3.036-.911-.911-1.676-.805-2.508.158-.805.95-1.861,2.389-2.534,3.062A8.124,8.124,0,0,1,79.834,143.238ZM12.091,164.367a4.886,4.886,0,0,0-5.174-4.976,5.722,5.722,0,0,0-5.9,5.491c0,2.2,1.2,3.656,2.508,3.656s2.4-1.492,3.194-4.184a26.285,26.285,0,0,0,.792-3.709,3.51,3.51,0,0,1,3.194,3.683,3.8,3.8,0,0,1-3.194,3.749,8.159,8.159,0,0,1-1.175.185l.779,1.241C10.322,169.04,12.091,167.139,12.091,164.367Zm-9.742.383a4.412,4.412,0,0,1,3.762-4.079,21.015,21.015,0,0,1-.726,3.406c-.607,2.033-1.228,2.891-1.822,2.891C3,166.967,2.35,166.268,2.35,164.75Zm16.738,1.492a9.531,9.531,0,0,1,1.571,2.1l.977-.634a9.439,9.439,0,0,0-1.624-2.033Zm6.758-3.326V161.78H22.7v-1.439h2.548v-1.109H22.7v-1.32H21.49v1.32H19.021v1.109H21.49v1.439H18.242v1.135h4.844v1.412H18.718l-.106-.739L17.226,164v-2.336h1.228V160.5H17.226v-2.574H16.091V160.5h-.858c.106-.554.172-1.135.238-1.7l-1.056-.185a15.3,15.3,0,0,1-.818,4.3,9.262,9.262,0,0,1,.884.554,11.44,11.44,0,0,0,.541-1.808h1.069v2.653c-.911.264-1.742.488-2.4.647l.317,1.175,2.086-.62v4.514h1.135v-4.871l1.267-.4v.7h4.594v3.115c0,.185-.066.238-.277.238s-.924.013-1.663-.013a4.879,4.879,0,0,1,.383,1.228,7.11,7.11,0,0,0,2.178-.2c.449-.211.594-.568.594-1.228v-3.142H25.74v-1.135H24.3v-1.412Zm2.93-3.3h2.957v2.218H28.776Zm1.346,4.567c.053-.422.079-.845.106-1.267h2.693v-4.382H27.654v4.382h1.373c-.119,2.3-.409,4.858-2.178,6.283a3.074,3.074,0,0,1,.845.858,7.564,7.564,0,0,0,2.3-4.778h1.848c-.106,2.376-.238,3.313-.462,3.551-.092.132-.224.145-.436.145a13.294,13.294,0,0,1-1.412-.066,2.537,2.537,0,0,1,.343,1.082,9.956,9.956,0,0,0,1.6-.026,1.128,1.128,0,0,0,.9-.422c.356-.409.488-1.637.634-4.858.013-.158.013-.5.013-.5Zm5.161-4.673H34.1V166.8h1.188Zm1.967-1.32v10.3c0,.238-.092.317-.343.33s-1.1.013-1.993-.026a5.684,5.684,0,0,1,.436,1.254,7.725,7.725,0,0,0,2.482-.211c.462-.224.647-.581.647-1.346v-10.3Zm6.983,5.346-1.333.4v-2.3h1.518V160.5H42.9v-2.548H41.712V160.5H40.194v1.135h1.518v2.627c-.647.185-1.228.356-1.7.475l.277,1.188,1.426-.449v3.155c0,.185-.066.238-.238.238-.145,0-.647,0-1.162-.013a4.679,4.679,0,0,1,.356,1.188,3.527,3.527,0,0,0,1.742-.251c.356-.185.488-.528.488-1.162v-3.511c.5-.158,1.016-.317,1.5-.475Zm6.151,2.165v2.627H46.345V165.7Zm-5.227,4.33h1.188v-.594h4.039v.541h1.228V164.6H45.157Zm-.383-11.458v1.109h2.072a4.006,4.006,0,0,1-2.521,3.59,3.126,3.126,0,0,1,.752.964c2.1-.964,2.746-2.587,3.01-4.554h2.482c-.106,1.954-.224,2.759-.422,2.97a.491.491,0,0,1-.422.145c-.211,0-.726,0-1.267-.053A2.815,2.815,0,0,1,48.8,163.9a12.86,12.86,0,0,0,1.5-.026,1.147,1.147,0,0,0,.871-.436c.343-.4.475-1.518.607-4.382.013-.158.013-.488.013-.488Zm11.312-.62a9.627,9.627,0,0,1-2.719,2.64,6.273,6.273,0,0,1,.62,1.03,13.385,13.385,0,0,0,3.26-3.194Zm.277,2.878A11.776,11.776,0,0,1,53.2,164.3a9.757,9.757,0,0,1,.62,1.228,12.171,12.171,0,0,0,1.373-1.28v5.795h1.175v-7.168a16.188,16.188,0,0,0,1.069-1.61Zm1.808,5.557a10.914,10.914,0,0,1,1.5,2.323l1.069-.607a11.628,11.628,0,0,0-1.571-2.244Zm7.3-3.181v-1.122H61.908v-1.426h2.917v-1.122H61.908v-1.558H60.694v1.558H57.908v1.122h2.785v1.426H57.143v1.122H62.5v1.28H57.288v1.122H62.5v3.036c0,.185-.066.238-.277.251s-.924.013-1.637-.026a4.889,4.889,0,0,1,.383,1.175,6.041,6.041,0,0,0,2.152-.211c.462-.172.594-.5.594-1.162v-3.062H65.38v-1.122H63.716v-1.28Z" transform="translate(-172 3961)" fill="#3f3f3f"/>
  </g>
</svg>
