<svg xmlns="http://www.w3.org/2000/svg" width="152" height="152" viewBox="0 0 152 152">
  <g id="program3" transform="translate(391 -1591)">
    <g id="パス_36" data-name="パス 36" transform="translate(-391 1591)" fill="#fff">
      <path d="M 144 151.5 L 8 151.5 C 3.864480018615723 151.5 0.5 148.1355133056641 0.5 144 L 0.5 8 C 0.5 3.864480018615723 3.864480018615723 0.5 8 0.5 L 144 0.5 C 148.1355133056641 0.5 151.5 3.864480018615723 151.5 8 L 151.5 144 C 151.5 148.1355133056641 148.1355133056641 151.5 144 151.5 Z" stroke="none"/>
      <path d="M 8 1 C 4.140182495117188 1 1 4.140182495117188 1 8 L 1 144 C 1 147.8598175048828 4.140182495117188 151 8 151 L 144 151 C 147.8598175048828 151 151 147.8598175048828 151 144 L 151 8 C 151 4.140182495117188 147.8598175048828 1 144 1 L 8 1 M 8 0 L 144 0 C 148.4182739257812 0 152 3.58172607421875 152 8 L 152 144 C 152 148.4182739257812 148.4182739257812 152 144 152 L 8 152 C 3.58172607421875 152 0 148.4182739257812 0 144 L 0 8 C 0 3.58172607421875 3.58172607421875 0 8 0 Z" stroke="none" fill="#008485"/>
    </g>
    <path id="パス_30" data-name="パス 30" d="M8,0H50L0,50V8A8,8,0,0,1,8,0Z" transform="translate(-391 1591)" fill="#008485"/>
    <path id="パス_39" data-name="パス 39" d="M-8.466-4.573a5.874,5.874,0,0,0,.68,3.332A3.419,3.419,0,0,0-4.59.187,3.453,3.453,0,0,0-1.547-1.037c.6-.765.833-1.734.833-3.536V-7.565a5.735,5.735,0,0,0-.68-3.332,3.419,3.419,0,0,0-3.2-1.428A3.453,3.453,0,0,0-7.633-11.1c-.6.748-.833,1.751-.833,3.536Zm5.185-.221c0,2.193-.306,2.873-1.309,2.873-.986,0-1.309-.7-1.309-2.873v-2.55c0-2.176.323-2.873,1.309-2.873,1,0,1.309.68,1.309,2.873ZM2.89-5.389H3.944A1.705,1.705,0,0,1,5.729-3.536c0,1.037-.493,1.615-1.394,1.615-.935,0-1.428-.493-1.547-1.564L.34-3.2A3.333,3.333,0,0,0,.986-1.139,4.056,4.056,0,0,0,4.437.187c2.6,0,3.876-1.207,3.876-3.655A2.985,2.985,0,0,0,6.8-6.409a2.657,2.657,0,0,0,1.224-2.55c0-2.193-1.258-3.366-3.621-3.366C1.989-12.325.765-11.271.629-9.1l2.312.17c.119-.85.578-1.292,1.326-1.292.765,0,1.173.493,1.173,1.377,0,.952-.578,1.445-1.666,1.445H2.89Z" transform="translate(-375 1612)" fill="#fff"/>
    <path id="パス_42" data-name="パス 42" d="M-26.85-10.47h-6.36v-.615h6.36Zm0,1.71h-6.36v-.63h6.36Zm1.785-3.465H-34.92V-7.62h9.855Zm-.855,8.49a6.281,6.281,0,0,1-1.02,1.47,5.807,5.807,0,0,1-1.005-1.47ZM-33.87-1.95h1.95v.585c-.66.06-1.32.105-1.95.15Zm0-1.86h1.95v.63h-1.95Zm1.95-1.845v.6h-1.95v-.6Zm7.05.495-.3.06h-4.665v1.365h1.38l-.99.27a9.187,9.187,0,0,0,1.365,2.22,7.7,7.7,0,0,1-2.13,1.08v-5.49h6.87v-1.41H-36.675v1.41h1.17V-1.1c-.465.045-.915.06-1.305.09l.135,1.53c1.32-.12,3.03-.27,4.755-.435V1.305h1.71V.09a6.631,6.631,0,0,1,.8,1.2,9.773,9.773,0,0,0,2.55-1.4,8.4,8.4,0,0,0,2.79,1.4,7.389,7.389,0,0,1,1.05-1.4,8.386,8.386,0,0,1-2.64-1.11,8.942,8.942,0,0,0,1.89-3.525Zm7.635-4.605a11.212,11.212,0,0,1-.555,1.65l.99.21h-2.94l.75-.21a5.914,5.914,0,0,0-.51-1.65ZM-17.43-3.78h2.475v-1.5H-17.43V-6.435h2.61v-1.47h-1.515c.21-.45.45-1.05.72-1.7l-.87-.165h1.545V-11.22h-2.49v-1.365h-1.725v1.365h-2.52v1.455h1.68l-.915.21a6.949,6.949,0,0,1,.45,1.65h-1.38v1.47h2.685V-5.28H-21.8v1.5h2.28a9.841,9.841,0,0,1-2.7,2.895A6.592,6.592,0,0,1-21.06.375a10.6,10.6,0,0,0,1.9-2.115V1.275h1.725v-3.2a14.038,14.038,0,0,1,1.1,1.17L-15.3-2.025c-.345-.27-1.59-1.26-2.13-1.635Zm9.42-3.99h-4.68v-2.1a24.307,24.307,0,0,0,4.6-1.38l-1.425-1.3a17.655,17.655,0,0,1-3.825,1.32l-1.035-.285v5.19c0,2.07-.18,4.62-1.905,6.45A4.111,4.111,0,0,1-15,1.335c1.98-2.055,2.3-5.22,2.31-7.455h1.53V1.215h1.725V-6.12H-8.01ZM6.87-9.075v-1.74H.915v-1.95H-.99v1.95H-6.81v1.74H-.975V-7.5H-5.4v7h1.8V-5.76H-.975V1.32H.885V-5.76H3.75v3.3c0,.165-.075.24-.315.24s-1.125,0-1.875-.03A6.4,6.4,0,0,1,2.16-.5,7.153,7.153,0,0,0,4.815-.8c.615-.27.8-.78.8-1.635V-7.5H.885V-9.075Zm12.465-1.3h-3.87v-.72h3.87Zm0,1.89h-3.87v-.72h3.87Zm1.65-3.84h-7.1v5.07h7.1Zm1.02,7.14v-1.5H12.57v1.5h1.695a7.307,7.307,0,0,1-1.38,1.59L12.57-4.875l-1.2.525V-7.89h1.41V-9.57H11.37v-2.955H9.72V-9.57H8.22v1.68h1.5v4.23c-.7.285-1.335.54-1.845.735l.66,1.8c.915-.45,2-.99,3.075-1.53a6.178,6.178,0,0,1,1.17,1.05,9.321,9.321,0,0,0,1.755-1.47h.885A9.048,9.048,0,0,1,12.36-.36,5.27,5.27,0,0,1,13.53.69a11.446,11.446,0,0,0,3.51-3.765h.885a8.25,8.25,0,0,1-2.79,3.45,4.914,4.914,0,0,1,1.26.99,10.689,10.689,0,0,0,3-4.44h.585C19.815-1.26,19.635-.5,19.425-.27a.514.514,0,0,1-.45.165c-.195,0-.585,0-1.065-.045a3.557,3.557,0,0,1,.405,1.4,9.428,9.428,0,0,0,1.515-.03,1.4,1.4,0,0,0,.99-.51c.405-.435.645-1.635.855-4.56.015-.21.03-.615.03-.615h-6.09c.15-.24.3-.48.42-.72Zm14.4-.09a5.712,5.712,0,0,0-6.06-5.85A6.665,6.665,0,0,0,23.46-4.71c0,2.535,1.38,4.365,3.045,4.365,1.635,0,2.925-1.86,3.825-4.89a30.335,30.335,0,0,0,.9-4.065,3.708,3.708,0,0,1,3.15,3.96,4.071,4.071,0,0,1-3.42,4.02,11.537,11.537,0,0,1-1.395.24L30.69.705C34.47.12,36.4-2.115,36.4-5.28ZM25.38-4.905a4.722,4.722,0,0,1,3.81-4.35,22.515,22.515,0,0,1-.8,3.63c-.615,2.025-1.2,2.97-1.83,2.97C25.98-2.655,25.38-3.39,25.38-4.905ZM-47.79,19.56a16.475,16.475,0,0,1-.15,2.1h2.34c-.06-.615-.135-1.665-.135-2.1V15.315A43.325,43.325,0,0,1-40.32,17.55l.855-2.07a48.991,48.991,0,0,0-6.27-2.325v-2.22a16.308,16.308,0,0,1,.135-1.8h-2.34a10.413,10.413,0,0,1,.15,1.8Zm13.215.84,1.425,1.23a3.872,3.872,0,0,1,.885-.4,18.8,18.8,0,0,0,8.7-5.4l-1.065-1.7a17.188,17.188,0,0,1-7.71,4.965V11.3a10.972,10.972,0,0,1,.15-1.71h-2.355a9.584,9.584,0,0,1,.165,1.71v8.13A1.959,1.959,0,0,1-34.575,20.4Zm15.69-10.8-1.41,1.5a31.189,31.189,0,0,1,3.75,3.24l1.53-1.56A30.3,30.3,0,0,0-18.885,9.6Zm-1.875,9.99,1.26,1.98a16.245,16.245,0,0,0,5.565-2.115,15.95,15.95,0,0,0,5.55-5.55l-1.17-2.115a14.124,14.124,0,0,1-5.46,5.835A15.46,15.46,0,0,1-20.76,19.59ZM2.73,9.84l-1.26.525A12.85,12.85,0,0,1,2.79,12.69L4.1,12.1C3.75,11.43,3.15,10.47,2.73,9.84ZM4.7,9.015,3.45,9.6a14.045,14.045,0,0,1,1.395,2.25l1.26-.615A19.865,19.865,0,0,0,4.7,9.015Zm-7.95,10.77A16.243,16.243,0,0,1-3.4,21.87H-1.05c-.075-.615-.15-1.665-.15-2.085V15.54a40.185,40.185,0,0,1,5.43,2.235l.84-2.085A52.184,52.184,0,0,0-1.2,13.35V11.16a16.313,16.313,0,0,1,.135-1.815H-3.4a10.585,10.585,0,0,1,.15,1.815Zm17.475-9.27v1.92a40.259,40.259,0,0,0,6.45,0V10.5A30.845,30.845,0,0,1,14.22,10.515Zm1.2,6.405-1.725-.165a9.164,9.164,0,0,0-.255,1.95c0,1.545,1.245,2.46,3.825,2.46a21.243,21.243,0,0,0,3.87-.285l-.03-2.025a17.731,17.731,0,0,1-3.765.39c-1.53,0-2.1-.4-2.1-1.065A5.091,5.091,0,0,1,15.42,16.92ZM11.91,9.51l-2.1-.18c-.015.48-.105,1.05-.15,1.47a41.827,41.827,0,0,0-.63,5.94,19.175,19.175,0,0,0,.585,4.905l1.74-.12c-.015-.21-.03-.45-.03-.615a4.526,4.526,0,0,1,.075-.7c.165-.8.66-2.43,1.08-3.675l-.93-.735c-.21.5-.45,1.02-.675,1.53a7.237,7.237,0,0,1-.06-.975,39.784,39.784,0,0,1,.72-5.505C11.6,10.575,11.79,9.825,11.91,9.51Zm15.57,3.045a17.582,17.582,0,0,1-.72,3.03c-.66-.8-1.335-1.56-1.98-2.25L23.5,14.34c.825.915,1.71,1.98,2.505,3.045a8.328,8.328,0,0,1-3.195,3.405,7.821,7.821,0,0,1,1.2,1.395,10.086,10.086,0,0,0,3.075-3.24,14,14,0,0,1,1.02,1.845l1.425-1.215a14.859,14.859,0,0,0-1.545-2.43,20.5,20.5,0,0,0,1.23-4.365Zm2.205,2.655a12.5,12.5,0,0,1,1.545,3.27l1.545-.8A11.775,11.775,0,0,0,31.11,14.52Zm7.275-3.585h-1.6V8.295H33.6v3.33H30.33V10.6H27.555V8.31h-1.71v2.3h-2.61v1.65h6.6v1.08H33.6v6.75c0,.24-.09.315-.36.315s-1.065.015-1.905-.03a7.349,7.349,0,0,1,.57,1.92,5.979,5.979,0,0,0,2.7-.39c.57-.285.75-.81.75-1.815v-6.75h1.6Zm4.02.1H51.81V10.035H46.4V8.31h-1.86v1.725h-5.34v3.78c0,2.16-.1,5.31-1.335,7.455a8.285,8.285,0,0,1,1.545,1c1.35-2.34,1.575-6.045,1.575-8.46Zm7.875,2.22a18.893,18.893,0,0,0-3.63-2.175l-1.185,1.17a17.3,17.3,0,0,1,3.525,2.34ZM42.3,21a13.813,13.813,0,0,0,1.11-4.905l-1.6-.345a12.417,12.417,0,0,1-1.1,4.545Zm3.885-.57c-.42,0-.48-.075-.48-.615v-5.22h-1.77V19.83c0,1.665.375,2.19,1.965,2.19h1.665c1.395,0,1.845-.72,2.01-3.285A4.7,4.7,0,0,1,48,18.015c-.06,2.07-.15,2.415-.6,2.415ZM48.6,15.975a17.834,17.834,0,0,1,1.83,5.01l1.755-.72a17.871,17.871,0,0,0-1.995-4.9Z" transform="translate(-312 1626)" fill="#0a2451"/>
    <g id="お金を受け取るアイコン_円編" data-name="お金を受け取るアイコン　円編" transform="translate(-357.136 1661.277)">
      <path id="パス_7" data-name="パス 7" d="M36.152,263.752H47.093a3.979,3.979,0,1,0,0-7.958H31.18c-9.949,0-13.1,4.145-16.58,7.624l-6.318,5.518a1.884,1.884,0,0,0-.646,1.417v18.34a.628.628,0,0,0,1.037.474L20.883,278.7a1.887,1.887,0,0,1,1.56-.421l19.027,3.457a5.013,5.013,0,0,0,3.8-.84s24.288-16.887,26.077-18.381h0a3.747,3.747,0,0,0,.123-5.551c-1.57-1.713-4.5-1.35-6.451.1C63.227,258.554,51,266.585,51,266.585H36.152l-.047.023a1.417,1.417,0,1,1,.094-2.832Z" transform="translate(0 -222.324)" fill="#008485"/>
      <path id="パス_8" data-name="パス 8" d="M306.054,0a9.96,9.96,0,0,0-8.528,4.821,14.62,14.62,0,0,1,9.6,13.705c0,.464-.027.922-.069,1.376a9.976,9.976,0,0,0-1-19.9Z" transform="translate(-251.956)" fill="#008485"/>
      <path id="パス_9" data-name="パス 9" d="M183.521,54.451a11.4,11.4,0,1,0,11.4,11.4A11.4,11.4,0,0,0,183.521,54.451Zm4.531,10.464H184.93l-.335.523v1.249h3.457v1.775h-3.457v2.678h-2.147V68.463h-3.46V66.688h3.46V65.441l-.335-.526h-3.124V63.4h2.147l-1.824-2.842h1.82l2.388,3.719,2.392-3.719h1.82L185.907,63.4h2.145v1.513Z" transform="translate(-142.96 -47.327)" fill="#008485"/>
    </g>
  </g>
</svg>
