<svg xmlns="http://www.w3.org/2000/svg" width="152" height="152" viewBox="0 0 152 152">
  <g id="program2" transform="translate(218 -1420)">
    <g id="パス_37" data-name="パス 37" transform="translate(-218 1420)" fill="#fff">
      <path d="M 144 151.5 L 8 151.5 C 3.864480018615723 151.5 0.5 148.1355133056641 0.5 144 L 0.5 8 C 0.5 3.864480018615723 3.864480018615723 0.5 8 0.5 L 144 0.5 C 148.1355133056641 0.5 151.5 3.864480018615723 151.5 8 L 151.5 144 C 151.5 148.1355133056641 148.1355133056641 151.5 144 151.5 Z" stroke="none"/>
      <path d="M 8 1 C 4.140182495117188 1 1 4.140182495117188 1 8 L 1 144 C 1 147.8598175048828 4.140182495117188 151 8 151 L 144 151 C 147.8598175048828 151 151 147.8598175048828 151 144 L 151 8 C 151 4.140182495117188 147.8598175048828 1 144 1 L 8 1 M 8 0 L 144 0 C 148.4182739257812 0 152 3.58172607421875 152 8 L 152 144 C 152 148.4182739257812 148.4182739257812 152 144 152 L 8 152 C 3.58172607421875 152 0 148.4182739257812 0 144 L 0 8 C 0 3.58172607421875 3.58172607421875 0 8 0 Z" stroke="none" fill="#008485"/>
    </g>
    <path id="パス_31" data-name="パス 31" d="M8,0H50L0,50V8A8,8,0,0,1,8,0Z" transform="translate(-218 1420)" fill="#008485"/>
    <path id="パス_40" data-name="パス 40" d="M-8.466-4.573a5.874,5.874,0,0,0,.68,3.332A3.419,3.419,0,0,0-4.59.187,3.453,3.453,0,0,0-1.547-1.037c.6-.765.833-1.734.833-3.536V-7.565a5.735,5.735,0,0,0-.68-3.332,3.419,3.419,0,0,0-3.2-1.428A3.453,3.453,0,0,0-7.633-11.1c-.6.748-.833,1.751-.833,3.536Zm5.185-.221c0,2.193-.306,2.873-1.309,2.873-.986,0-1.309-.7-1.309-2.873v-2.55c0-2.176.323-2.873,1.309-2.873,1,0,1.309.68,1.309,2.873ZM.527,0H8.194V-2.125H3.944l1.6-1.853A14.907,14.907,0,0,0,7.4-6.307a4.662,4.662,0,0,0,.816-2.652c0-2.176-1.275-3.366-3.638-3.366-2.5,0-3.791,1.173-3.91,3.553l2.4.17a2.284,2.284,0,0,1,.272-.918,1.094,1.094,0,0,1,1.156-.7,1,1,0,0,1,1.139,1.1A3,3,0,0,1,5.3-7.769,14.688,14.688,0,0,1,3.927-5.763l-3.4,4.08Z" transform="translate(-202 1441)" fill="#fff"/>
    <path id="パス_43" data-name="パス 43" d="M-36.435-3.93A10.906,10.906,0,0,1-37.23-.45,8.817,8.817,0,0,1-35.865.2a13.868,13.868,0,0,0,.9-3.87Zm3.255.27a17.748,17.748,0,0,1,.87,2.79l1.32-.48a16.538,16.538,0,0,0-.93-2.7Zm6.87,1.23h2.67V-4.005h-2.67V-5.79h-1.755v1.785h-2.55V-2.43h2.55V-.675H-31.5V.885h8.475V-.675H-26.31Zm.465-8.055A7.585,7.585,0,0,1-27.315-8.7a6.794,6.794,0,0,1-1.44-1.785Zm1.215-1.605-.315.075h-6.21v1.53h1.71l-.96.315a9.723,9.723,0,0,0,1.77,2.445A11.5,11.5,0,0,1-31.62-6.48a14.79,14.79,0,0,0-.69-1.38l-1.185.5c.18.33.36.7.525,1.08l-1.44.06c.945-1.215,1.98-2.73,2.805-4.035l-1.455-.675A27.2,27.2,0,0,1-34.4-8.505c-.15-.18-.315-.39-.51-.6.54-.84,1.14-1.995,1.68-3.015l-1.545-.57a19.015,19.015,0,0,1-1.1,2.61c-.12-.1-.24-.21-.345-.3l-.855,1.215a14.72,14.72,0,0,1,1.77,2.04c-.24.345-.48.675-.705.96l-1.08.045.15,1.545,2.175-.135V1.32h1.545V-4.815l.765-.06a7.191,7.191,0,0,1,.195.765l1.26-.57A8.955,8.955,0,0,0-31.6-6.45a6.993,6.993,0,0,1,.945,1.44,13.45,13.45,0,0,0,3.42-1.575,10.989,10.989,0,0,0,3.345,1.5A7.165,7.165,0,0,1-22.8-6.525a10.7,10.7,0,0,1-3.075-1.14A9.521,9.521,0,0,0-23.43-11.55ZM-21.27.465a7.139,7.139,0,0,0,.84-3.6l-.99-.2a6.969,6.969,0,0,1-.75,3.3Zm.975-3.48a17.756,17.756,0,0,1,.1,2.775l.81-.105a14.69,14.69,0,0,0-.15-2.745Zm1.02-.075A11.283,11.283,0,0,1-18.81-.66l.78-.165a12.356,12.356,0,0,0-.5-2.415Zm1.89-2.265v-.93h1.305v-1.35h-1.305v-.9h1.305V-8.88a8.24,8.24,0,0,1,.7,1.275A8.824,8.824,0,0,0-14.22-8.46v.81h1.53v.81h-2.55v3.96h2.13A5.3,5.3,0,0,1-15.87-.06a36.848,36.848,0,0,0,.36-4.71c.015-.2.015-.585.015-.585Zm-2.445-.93h1.02v.93h-1.02Zm1.02-2.25v.9h-1.02v-.9Zm0-2.175v.825h-1.02v-.825Zm5.175,1.7a11.207,11.207,0,0,0,1.65-2.13,10.647,10.647,0,0,0,1.755,2.13Zm3.69,3.465v1.38h-1.23a13.153,13.153,0,0,0,.06-1.32v-.06Zm-3.84,1.38V-5.55h1.1v.045a8.1,8.1,0,0,1-.09,1.335ZM-8.43-2.88V-6.84h-2.685v-.81h1.5v-.825a6.816,6.816,0,0,0,.975.69,10.387,10.387,0,0,1,.885-1.53A9.686,9.686,0,0,1-11.28-12.69h-1.53a9.575,9.575,0,0,1-3.27,3.6v-.8h-1.305v-.825h1.605v-1.44H-21.3v8.175h4.29c-.03.645-.06,1.2-.09,1.65a8.659,8.659,0,0,0-.51-1.215l-.7.24a8.79,8.79,0,0,1,.675,1.935l.48-.18A3.49,3.49,0,0,1-17.415-.24a.448.448,0,0,1-.4.2,8.5,8.5,0,0,1-.915-.06,3.427,3.427,0,0,1,.36,1.38,5.838,5.838,0,0,0,1.32-.045,1.191,1.191,0,0,0,.9-.525,1.222,1.222,0,0,0,.195-.42,5.968,5.968,0,0,1,.87,1.05,6.588,6.588,0,0,0,3.33-3.2A6.5,6.5,0,0,0-8.955,1.29,6.94,6.94,0,0,1-7.83-.12a5.645,5.645,0,0,1-2.805-2.76ZM3.645-9.87H2.16v-.645H3.645Zm0,1.755H2.16v-.66H3.645Zm-7.5-.66H-2.4v.66H-3.855Zm0-1.74H-2.4v.645H-3.855ZM.63-8.775v.66H-.9v-.66Zm0-1.74v.645H-.9v-.645Zm4.725-1.17H2.16v-1.02H.63v1.02H-.9v-1.02H-2.4v1.02H-5.49V-6.93H5.355ZM6.54-6.435H-6.51v1.26H6.54Zm-4.7,4.89c-.21.42-.48.87-.69,1.2l.21.075H-1.59l.315-.1a5.1,5.1,0,0,0-.6-1.17Zm-4.98-1.98h6.15v.84h-6.15Zm6,3.255c.225-.345.48-.735.72-1.14L3.2-1.545H4.86v-3.12H-4.86v3.12h1.725l-.48.135A8.171,8.171,0,0,1-3.03-.27H-6.675V1.08H6.675V-.27Zm11.2-2.685v.72H11.34v-.72Zm4.56.72H15.8v-.72H18.63ZM15.8-.345V-1.11H18.63v.765Zm-4.455,0V-1.11h2.73v.765ZM9.675,1.29H11.34V.945h7.29V1.26h1.755V-4.245H9.675Zm2.64-8.04H17.64v.8H12.315ZM10.695-4.8h8.67V-7.92h-8.67Zm.24-4.89v1.215H19.05V-9.69Zm4.935-2.16v-.855H14.04v.855H8.625v3.285H10.32V-10.35h9.33v1.785h1.785V-11.85Zm13.71-.225-2.07-.21A12.614,12.614,0,0,1,27.1-9.78c-.465.045-.915.06-1.365.06a18.95,18.95,0,0,1-1.995-.105l.135,1.74c.645.045,1.26.06,1.875.06.255,0,.51,0,.78-.015a23.633,23.633,0,0,1-3.06,5.295l1.815.93a27.639,27.639,0,0,0,3.21-6.42,26.022,26.022,0,0,0,2.625-.525l-.06-1.74a18.389,18.389,0,0,1-2.025.48C29.265-10.83,29.46-11.6,29.58-12.075ZM28.8-1.7c0-.525.555-.915,1.425-.915a5.389,5.389,0,0,1,1.215.15v.3c0,.825-.315,1.4-1.35,1.4C29.265-.765,28.8-1.14,28.8-1.7ZM33.09-7.41H31.215c.03.915.1,2.25.165,3.36-.345-.03-.675-.06-1.035-.06-2.085,0-3.315,1.125-3.315,2.6C27.03.135,28.5.96,30.36.96c2.13,0,2.9-1.08,2.9-2.475v-.15A12.716,12.716,0,0,1,35.28-.06l1.005-1.605a9.809,9.809,0,0,0-3.1-1.92c-.03-.75-.075-1.47-.09-1.905C33.075-6.15,33.045-6.78,33.09-7.41Zm2.58.8L36.735-8.19a25.838,25.838,0,0,0-3.705-2.04l-.96,1.485A21.649,21.649,0,0,1,35.67-6.615ZM-40.29,19.56a16.475,16.475,0,0,1-.15,2.1h2.34c-.06-.615-.135-1.665-.135-2.1V15.315A43.325,43.325,0,0,1-32.82,17.55l.855-2.07a48.991,48.991,0,0,0-6.27-2.325v-2.22a16.308,16.308,0,0,1,.135-1.8h-2.34a10.413,10.413,0,0,1,.15,1.8Zm13.215.84,1.425,1.23a3.872,3.872,0,0,1,.885-.4,18.8,18.8,0,0,0,8.7-5.4l-1.065-1.7a17.188,17.188,0,0,1-7.71,4.965V11.3a10.972,10.972,0,0,1,.15-1.71h-2.355a9.584,9.584,0,0,1,.165,1.71v8.13A1.959,1.959,0,0,1-27.075,20.4Zm13.455-6.345V16.41c.555-.045,1.56-.075,2.415-.075H-3.15c.63,0,1.395.06,1.755.075V14.055c-.39.03-1.05.09-1.755.09H-11.2C-11.985,14.145-13.08,14.1-13.62,14.055ZM6.87,10.89v1.65H2.97c-.6,0-1.215-.06-1.665-.105V14.5c.465-.03,1.065-.075,1.725-.075H6.855A6.405,6.405,0,0,1,2.79,20.46l1.86,1.38a8.057,8.057,0,0,0,4.275-7.41H12.3c.6,0,1.335.045,1.65.06V12.45c-.315.03-.945.09-1.635.09H8.94V10.9a11.57,11.57,0,0,1,.12-1.77H6.675A7.494,7.494,0,0,1,6.87,10.89Zm9.51,3.165V16.41c.555-.045,1.56-.075,2.415-.075H26.85c.63,0,1.395.06,1.755.075V14.055c-.39.03-1.05.09-1.755.09H18.8C18.015,14.145,16.92,14.1,16.38,14.055ZM37.665,15.54H39.18v.885H37.665Zm0-2.115H39.18v.885H37.665Zm4.6.885H40.68v-.885h1.59Zm0,2.115H40.68V15.54h1.59Zm2.22,2.325H40.8V17.745h3.165V12.12H40.8v-.99h3.48V9.57H40.8V8.31H39.06V9.57H35.85V9.555l-1.2-.69-.27.075H31.11V22.305h1.545V10.53H33.84c-.255,1.035-.57,2.385-.885,3.345a3.909,3.909,0,0,1,1.05,2.61,1.138,1.138,0,0,1-.24.87.977.977,0,0,1-.42.12,3.436,3.436,0,0,1-.66-.03,3.865,3.865,0,0,1,.39,1.575,6.833,6.833,0,0,0,.99-.03,2.014,2.014,0,0,0,.87-.315,2.255,2.255,0,0,0,.675-1.935,4.677,4.677,0,0,0-1.1-3.075c.4-1.095.87-2.61,1.26-3.87V11.13H39.06v.99H36.045v5.625H39.06V18.75H35.31v1.56h3.75v2H40.8v-2h3.69Z" transform="translate(-140 1455)" fill="#0a2451"/>
    <g id="無料のコールセンターの人物アイコン素材" transform="translate(-220.114 1491)">
      <path id="パス_22" data-name="パス 22" d="M89.777,33.194a1.936,1.936,0,0,0,.615.1,1.9,1.9,0,0,0,1.229-.453c.748-.635,1.1-1.71.555-5.1-.483-3.01-1.232-4.587-2.5-5.27a2.749,2.749,0,0,0-.878-.3A20.483,20.483,0,0,1,94.082,7.925a15.467,15.467,0,0,1,21.821,0,20.481,20.481,0,0,1,5.287,14.244,2.749,2.749,0,0,0-.878.3c-1.271.684-2.02,2.26-2.5,5.27-.546,3.395-.193,4.471.555,5.105a1.9,1.9,0,0,0,1.229.453,1.928,1.928,0,0,0,.615-.1c1.354-.451,4.208-3.536,4.392-10.2.189-6.821-2.087-13.183-6.245-17.458a18.888,18.888,0,0,0-26.725,0C87.472,9.813,85.2,16.176,85.384,23,85.568,29.658,88.423,32.743,89.777,33.194Z" transform="translate(-26.878 0)" fill="#008485"/>
      <path id="パス_23" data-name="パス 23" d="M100.733,104.077a7.413,7.413,0,0,0-4.2-5.4l-9.2-3.761a4.158,4.158,0,0,1-2.416-3.768V89.79a5.758,5.758,0,0,1,.28-1.776c.058-.078,5.83-7.862,5.83-14.969,0-8.589-5.431-14.822-12.912-14.822S65.2,64.456,65.2,73.044c0,7.107,5.772,14.891,5.8,14.919a5.6,5.6,0,0,1,.306,1.826v1.355A4.156,4.156,0,0,1,68.9,94.909l-9.218,3.768a7.41,7.41,0,0,0-4.193,5.419L55,110.4h46.221Z" transform="translate(0 -51.528)" fill="#008485"/>
    </g>
  </g>
</svg>
