<svg xmlns="http://www.w3.org/2000/svg" width="152" height="152" viewBox="0 0 152 152">
  <g id="program4" transform="translate(218 -1591)">
    <g id="パス_38" data-name="パス 38" transform="translate(-218 1591)" fill="#fff">
      <path d="M 144 151.5 L 8 151.5 C 3.864480018615723 151.5 0.5 148.1355133056641 0.5 144 L 0.5 8 C 0.5 3.864480018615723 3.864480018615723 0.5 8 0.5 L 144 0.5 C 148.1355133056641 0.5 151.5 3.864480018615723 151.5 8 L 151.5 144 C 151.5 148.1355133056641 148.1355133056641 151.5 144 151.5 Z" stroke="none"/>
      <path d="M 8 1 C 4.140182495117188 1 1 4.140182495117188 1 8 L 1 144 C 1 147.8598175048828 4.140182495117188 151 8 151 L 144 151 C 147.8598175048828 151 151 147.8598175048828 151 144 L 151 8 C 151 4.140182495117188 147.8598175048828 1 144 1 L 8 1 M 8 0 L 144 0 C 148.4182739257812 0 152 3.58172607421875 152 8 L 152 144 C 152 148.4182739257812 148.4182739257812 152 144 152 L 8 152 C 3.58172607421875 152 0 148.4182739257812 0 144 L 0 8 C 0 3.58172607421875 3.58172607421875 0 8 0 Z" stroke="none" fill="#008485"/>
    </g>
    <path id="パス_32" data-name="パス 32" d="M8,0H50L0,50V8A8,8,0,0,1,8,0Z" transform="translate(-218 1591)" fill="#008485"/>
    <path id="パス_41" data-name="パス 41" d="M-8.466-4.573a5.874,5.874,0,0,0,.68,3.332A3.419,3.419,0,0,0-4.59.187,3.453,3.453,0,0,0-1.547-1.037c.6-.765.833-1.734.833-3.536V-7.565a5.735,5.735,0,0,0-.68-3.332,3.419,3.419,0,0,0-3.2-1.428A3.453,3.453,0,0,0-7.633-11.1c-.6.748-.833,1.751-.833,3.536Zm5.185-.221c0,2.193-.306,2.873-1.309,2.873-.986,0-1.309-.7-1.309-2.873v-2.55c0-2.176.323-2.873,1.309-2.873,1,0,1.309.68,1.309,2.873ZM5.287,0H7.616V-2.074H8.67V-4.148H7.616v-2.72H5.287v2.72H3.468l3.5-7.99H4.216L.51-3.638v1.564H5.287Z" transform="translate(-202 1612)" fill="#fff"/>
    <path id="パス_44" data-name="パス 44" d="M-26.355-9.87H-27.84v-.645h1.485Zm0,1.755H-27.84v-.66h1.485Zm-7.5-.66H-32.4v.66h-1.455Zm0-1.74H-32.4v.645h-1.455Zm4.485,1.74v.66H-30.9v-.66Zm0-1.74v.645H-30.9v-.645Zm4.725-1.17H-27.84v-1.02h-1.53v1.02H-30.9v-1.02h-1.5v1.02h-3.09V-6.93h10.845Zm1.185,5.25H-36.51v1.26h13.05Zm-4.695,4.89c-.21.42-.48.87-.69,1.2l.21.075H-31.59l.315-.1a5.1,5.1,0,0,0-.6-1.17Zm-4.98-1.98h6.15v.84h-6.15Zm6,3.255c.225-.345.48-.735.72-1.14l-.39-.135h1.665v-3.12h-9.72v3.12h1.725l-.48.135A8.171,8.171,0,0,1-33.03-.27h-3.645V1.08h13.35V-.27Zm11.2-2.685v.72h-2.73v-.72Zm4.56.72H-14.2v-.72h2.835ZM-14.2-.345V-1.11h2.835v.765Zm-4.455,0V-1.11h2.73v.765ZM-20.325,1.29h1.665V.945h7.29V1.26h1.755V-4.245h-10.71Zm2.64-8.04h5.325v.8h-5.325Zm-1.62,1.95h8.67V-7.92h-8.67Zm.24-4.89v1.215h8.115V-9.69Zm4.935-2.16v-.855h-1.83v.855h-5.415v3.285h1.695V-10.35h9.33v1.785h1.785V-11.85Zm13.71-.225-2.07-.21A12.614,12.614,0,0,1-2.895-9.78c-.465.045-.915.06-1.365.06a18.95,18.95,0,0,1-1.995-.105l.135,1.74c.645.045,1.26.06,1.875.06.255,0,.51,0,.78-.015a23.633,23.633,0,0,1-3.06,5.295l1.815.93A27.639,27.639,0,0,0-1.5-8.235,26.022,26.022,0,0,0,1.125-8.76l-.06-1.74a18.389,18.389,0,0,1-2.025.48C-.735-10.83-.54-11.6-.42-12.075ZM-1.2-1.7c0-.525.555-.915,1.425-.915a5.389,5.389,0,0,1,1.215.15v.3c0,.825-.315,1.4-1.35,1.4C-.735-.765-1.2-1.14-1.2-1.7ZM3.09-7.41H1.215c.03.915.1,2.25.165,3.36C1.035-4.08.705-4.11.345-4.11c-2.085,0-3.315,1.125-3.315,2.6C-2.97.135-1.5.96.36.96,2.49.96,3.255-.12,3.255-1.515v-.15A12.716,12.716,0,0,1,5.28-.06L6.285-1.665A9.809,9.809,0,0,0,3.18-3.585c-.03-.75-.075-1.47-.09-1.905C3.075-6.15,3.045-6.78,3.09-7.41Zm2.58.8L6.735-8.19a25.838,25.838,0,0,0-3.7-2.04L2.07-8.745A21.649,21.649,0,0,1,5.67-6.615ZM10.365-8.64V-9.825h9.18V-8.64H15.81v-.855H14.025v.855ZM21.6-2.37V-3.915H15.675a5.093,5.093,0,0,0,.12-.945H19.89V-6.3H15.81v-.9h4.38v-.99h1.2v-3.2H15.9v-1.3H14.07v1.3H8.6v3.2H9.93v.99h4.1v.9H10.17v1.44h3.84a6.875,6.875,0,0,1-.15.945H8.475V-2.37H12.99C12.165-1.485,10.725-.705,8.2-.135a7.279,7.279,0,0,1,1.11,1.44c3.06-.825,4.725-2.01,5.61-3.345C16.11-.18,17.9.885,20.745,1.335A6.94,6.94,0,0,1,21.8-.225c-2.37-.255-4.05-.945-5.115-2.145Zm10.125-8.055H29.07V-9.39h2.655v.51h-3.39v1.11h8.58V-8.88h-3.4v-.51h2.76v-1.035H33.51v-.51h3.12v-1.08H33.51v-.675H31.725v.675H28.71v1.08h3.015ZM23.5-3.93A10.932,10.932,0,0,1,22.74-.45a7.493,7.493,0,0,1,1.305.63,13.768,13.768,0,0,0,.885-3.87Zm3.99-1.035a8.163,8.163,0,0,1,.21.81l1.335-.6a12.944,12.944,0,0,0-1.29-3.15l-1.275.51c.165.315.33.645.48.99l-1.4.09c.945-1.2,1.965-2.685,2.79-3.945L26.9-10.935a24.182,24.182,0,0,1-1.35,2.43,7.545,7.545,0,0,0-.48-.585,33.77,33.77,0,0,0,1.695-3.06l-1.545-.54a18.406,18.406,0,0,1-1.08,2.6c-.12-.1-.24-.21-.345-.315l-.87,1.2a13.8,13.8,0,0,1,1.71,2.1c-.225.315-.45.615-.675.885l-1.08.06L23-4.62l2.145-.15V1.305h1.53V-4.89Zm-.66,1.29a11.18,11.18,0,0,1,.69,2.7l1.32-.435a11.159,11.159,0,0,0-.765-2.64Zm4.02.825H34.5v.63H30.855Zm0-1.665H34.5v.645H30.855Zm0-1.65H34.5v.63H30.855Zm5.34,5.055V-7.26h-6.93v6.15H30.57A11.665,11.665,0,0,1,27.615.255c.33.315.825.795,1.1,1.11A13.3,13.3,0,0,0,32.31-.45l-1.005-.66h2.73l-.93.675A25.98,25.98,0,0,1,35.58,1.32L37.14.48c-.6-.42-1.635-1.05-2.55-1.59ZM-38.6,15.72a5.712,5.712,0,0,0-6.06-5.85,6.665,6.665,0,0,0-6.885,6.42c0,2.535,1.38,4.365,3.045,4.365,1.635,0,2.925-1.86,3.825-4.89a30.335,30.335,0,0,0,.9-4.065,3.708,3.708,0,0,1,3.15,3.96,4.071,4.071,0,0,1-3.42,4.02,11.537,11.537,0,0,1-1.4.24L-44.31,21.7C-40.53,21.12-38.6,18.885-38.6,15.72Zm-11.025.375a4.722,4.722,0,0,1,3.81-4.35,22.515,22.515,0,0,1-.795,3.63c-.615,2.025-1.2,2.97-1.83,2.97C-49.02,18.345-49.62,17.61-49.62,16.095Zm26.37,1.215h-5.9v-.84a8.826,8.826,0,0,0,1.68-1.59,21.7,21.7,0,0,1,2.6,2.07l1.26-1.35a23.461,23.461,0,0,0-2.94-2.115,10.351,10.351,0,0,0,.6-1.44l-1.59-.33h3.855v-1.7h-5.46V8.31H-30.99v1.71h-5.325v1.7h2.805a7.442,7.442,0,0,1-3.165,4.11A12.126,12.126,0,0,1-35.19,17.04a9.757,9.757,0,0,0,2.235-2.385,12.169,12.169,0,0,1,1.425,1.17l1.065-1.245a14.831,14.831,0,0,0-1.725-1.26,9.485,9.485,0,0,0,.525-1.275l-1.425-.33h5.325a6.442,6.442,0,0,1-3.195,3.81,8.527,8.527,0,0,1,1.05.84h-1.08v.945h-5.73v1.71h5.73v3.27h1.845V19.02h5.9Zm10.1-5.115c-.165.405-.345.84-.525,1.2h-2.805l.255-.045a8.058,8.058,0,0,0-.51-1.155Zm4.845,6.69v-1.47h-5.835v-.66h4.5v-1.29h-4.5V14.79h5.2V13.395h-2.94c.225-.36.465-.765.705-1.2h2.82V10.74H-10.3c.345-.525.75-1.2,1.17-1.89L-11.01,8.4a12.083,12.083,0,0,1-.945,2.175l.54.165H-12.75V8.295h-1.68V10.74h-1.11V8.295H-17.2V10.74H-18.57l.735-.27a11.35,11.35,0,0,0-1.14-2.115l-1.53.525a13.445,13.445,0,0,1,.93,1.86h-2.01v1.455h3.135l-.18.03a6.741,6.741,0,0,1,.51,1.17h-2.85V14.79h5.07v.675h-4.32v1.29h4.32v.66h-5.73v1.47h4.3a15.759,15.759,0,0,1-4.74,1.755,8.32,8.32,0,0,1,1.14,1.485,14.229,14.229,0,0,0,5.025-2.43v2.61h1.755V19.6A12.8,12.8,0,0,0-9.1,22.14a8.391,8.391,0,0,1,1.2-1.62,13.4,13.4,0,0,1-4.755-1.635ZM.96,20.13V17.115H5.445V15.39H.96V12.75H6.015V11.01H.96V8.31H-.915v2.7h-2.31c.255-.69.495-1.4.7-2.115L-4.365,8.49A12.905,12.905,0,0,1-7.02,13.86a14.185,14.185,0,0,1,1.605,1.065A12.363,12.363,0,0,0-4.02,12.75H-.915v2.64H-4.98v1.725H-.915V20.13H-6.7v1.755H6.78V20.13ZM14.79,8.97,12.81,8.8a8.339,8.339,0,0,1-.3,1.725h-.72a19.518,19.518,0,0,1-2.64-.18V12.1c.825.06,1.92.09,2.535.09h.2a14.721,14.721,0,0,1-3.315,4.14l1.6,1.2a17.27,17.27,0,0,1,1.4-1.65,3.654,3.654,0,0,1,2.34-1.035,1.154,1.154,0,0,1,1.05.51c-1.71.885-3.51,2.085-3.51,4.005s1.74,2.505,4.1,2.505a37.523,37.523,0,0,0,4.245-.255l.06-1.935a24.538,24.538,0,0,1-4.26.42c-1.47,0-2.175-.225-2.175-1.05,0-.75.6-1.335,1.725-1.98-.015.66-.03,1.38-.075,1.83h1.8c-.015-.69-.045-1.8-.06-2.64.915-.42,1.77-.75,2.445-1.02.51-.195,1.305-.5,1.785-.63l-.75-1.74c-.555.285-1.08.525-1.665.78-.615.27-1.245.525-2.025.885A2.031,2.031,0,0,0,14.6,13.38a5.083,5.083,0,0,0-1.7.3,10.473,10.473,0,0,0,.855-1.53,44.683,44.683,0,0,0,4.89-.375l.015-1.74a37.975,37.975,0,0,1-4.245.435A14.351,14.351,0,0,0,14.79,8.97Zm11.73,9.615V18.09h2.61v.495Zm0-1.8h2.61v.48H26.52Zm7.11,0v.48H30.885v-.48Zm0,1.8H30.885V18.09H33.63Zm2.985,1.335h-5.73v-.48H35.37V15.915H30.885V15.48h5.25V14.355h-5.25v-.33h1.5v-.99H36.6V12.03H32.385v-.48H36.06v-.975H32.385v-.48h3.93V9.09h-3.93V8.31H30.75v5.235H29.13v.81H27.495A2.9,2.9,0,0,0,29.31,11.58V8.295H27.7v.8h-3.9v1.005h3.9v.48H24.15v.975H27.7v.015a3.013,3.013,0,0,1-.015.375c-1.62.09-3.18.15-4.335.195l.1,1.035c1.065-.06,2.4-.135,3.765-.24a3.733,3.733,0,0,1-2.22.735,7.773,7.773,0,0,1,.57.69H23.97V15.48h5.16v.435H24.84V19.44h4.29v.48H23.385v1.17H29.13v1.2h1.755v-1.2h5.73ZM49.17,15.945V19.68H45.825V15.15h4.6V9.7H48.555v3.7h-2.73V8.445h-1.83V13.41h-2.58V9.7h-1.77V15.15h4.35v4.53H40.86V15.945H39.045v6.36H40.86v-.87h8.31v.855h1.86V15.945Z" transform="translate(-139 1626)" fill="#0a2451"/>
    <g id="人物の組み合わせのアイコン素材" transform="translate(-182.683 1596.564)">
      <path id="パス_10" data-name="パス 10" d="M25.046,126.059a2.167,2.167,0,0,0,1.685-1.6,16.341,16.341,0,0,1-.633-2.289c-.157-1.5,1.1-5.1,1.471-5.74-.051-.123-.1-.231-.153-.357a10.19,10.19,0,0,1-4.348-6.741,7.448,7.448,0,0,1,.973-5.608s-1.186-8.275.484-13.68c-1.56-.751-3.259-.625-5.588-.392-1.787.179-2.041.559-3.414.36a12.43,12.43,0,0,1-3.234-.9c-.221-.11-2.3,1.731-2.874,3.234a17.479,17.479,0,0,0-.874,10.5c-.016.253-.036.505-.036.761l.426,1.809c0,.019,0,.037,0,.055a3.449,3.449,0,0,0-1.193,3.345c.608,2.691,1.918,3.783,3.208,4.255a13.79,13.79,0,0,0,2.654,4.962,13.4,13.4,0,0,1,.3,4.137C13.252,128.472,0,125.154,0,136.211c0,1.448,4.124,3.811,14.115,4.491a4.755,4.755,0,0,1-.049-.648C14.066,130.139,20.511,127.455,25.046,126.059Z" transform="translate(0 -17.391)" fill="#008485"/>
      <path id="パス_11" data-name="パス 11" d="M350.546,124.086a13.375,13.375,0,0,1,.3-4.134,13.794,13.794,0,0,0,2.656-4.966c1.289-.473,2.6-1.565,3.206-4.255a3.4,3.4,0,0,0-1.047-3.21c.61-2.044,3.008-11.516-4.2-13.437-2.4-2.994-4.491-2.874-8.084-2.515-1.787.179-2.041.559-3.413.36-.3-.044-.585-.1-.86-.156a11,11,0,0,1,.737,1.127c2.4,4.3,1.77,9.737,1.014,13.06a7.468,7.468,0,0,1,.789,5.29,10.192,10.192,0,0,1-4.346,6.738,1,1,0,0,0,.01,1.113,3.461,3.461,0,0,0,.735.848,13.4,13.4,0,0,1,.3,4.137c-.129,1.247-2.281,2.289-1.674,2.793.6.251,1.289.514,2.066.8,4.454,1.635,11.907,4.373,11.907,14.288a4.742,4.742,0,0,1-.046.629c9.8-.7,13.844-3.037,13.844-4.472C364.451,127.067,351.2,130.385,350.546,124.086Z" transform="translate(-283.085 -19.304)" fill="#008485"/>
      <path id="パス_12" data-name="パス 12" d="M141.982,106.5a15.441,15.441,0,0,1,.35-4.761,15.86,15.86,0,0,0,3.058-5.716c1.484-.545,2.992-1.8,3.692-4.9a3.922,3.922,0,0,0-1.206-3.7c.7-2.354,3.462-13.26-4.831-15.471-2.758-3.447-5.171-3.309-9.308-2.9-2.058.206-2.351.643-3.93.414a14.326,14.326,0,0,1-3.723-1.034c-.255-.128-2.644,1.993-3.31,3.723a20.137,20.137,0,0,0-1.006,12.087c-.018.291-.042.581-.042.876l.491,2.083c0,.021,0,.042,0,.063a3.969,3.969,0,0,0-1.372,3.851c.7,3.1,2.208,4.355,3.693,4.9a15.872,15.872,0,0,0,3.056,5.714,15.427,15.427,0,0,1,.35,4.762c-.753,7.251-16.01,3.432-16.01,16.163,0,1.963,6.579,5.388,23.028,5.388s23.028-3.424,23.028-5.388C157.992,109.932,142.735,113.751,141.982,106.5Zm-9.688,19.443-4.176-16.961,5.137,2.138-.276,2.482.816-.018Zm5.748,0-1.5-12.359.816.018-.276-2.482,5.137-2.138Z" transform="translate(-94.147 0)" fill="#008485"/>
    </g>
  </g>
</svg>
