<svg xmlns="http://www.w3.org/2000/svg" width="152" height="152" viewBox="0 0 152 152">
  <g id="program1" transform="translate(391 -1420)">
    <g id="パス_33" data-name="パス 33" transform="translate(-391 1420)" fill="#fff">
      <path d="M 144 151.5 L 8 151.5 C 3.864480018615723 151.5 0.5 148.1355133056641 0.5 144 L 0.5 8 C 0.5 3.864480018615723 3.864480018615723 0.5 8 0.5 L 144 0.5 C 148.1355133056641 0.5 151.5 3.864480018615723 151.5 8 L 151.5 144 C 151.5 148.1355133056641 148.1355133056641 151.5 144 151.5 Z" stroke="none"/>
      <path d="M 8 1 C 4.140182495117188 1 1 4.140182495117188 1 8 L 1 144 C 1 147.8598175048828 4.140182495117188 151 8 151 L 144 151 C 147.8598175048828 151 151 147.8598175048828 151 144 L 151 8 C 151 4.140182495117188 147.8598175048828 1 144 1 L 8 1 M 8 0 L 144 0 C 148.4182739257812 0 152 3.58172607421875 152 8 L 152 144 C 152 148.4182739257812 148.4182739257812 152 144 152 L 8 152 C 3.58172607421875 152 0 148.4182739257812 0 144 L 0 8 C 0 3.58172607421875 3.58172607421875 0 8 0 Z" stroke="none" fill="#008485"/>
    </g>
    <path id="パス_29" data-name="パス 29" d="M8,0H50L0,50V8A8,8,0,0,1,8,0Z" transform="translate(-391 1420)" fill="#008485"/>
    <path id="パス_34" data-name="パス 34" d="M-8.466-4.573a5.874,5.874,0,0,0,.68,3.332A3.419,3.419,0,0,0-4.59.187,3.453,3.453,0,0,0-1.547-1.037c.6-.765.833-1.734.833-3.536V-7.565a5.735,5.735,0,0,0-.68-3.332,3.419,3.419,0,0,0-3.2-1.428A3.453,3.453,0,0,0-7.633-11.1c-.6.748-.833,1.751-.833,3.536Zm5.185-.221c0,2.193-.306,2.873-1.309,2.873-.986,0-1.309-.7-1.309-2.873v-2.55c0-2.176.323-2.873,1.309-2.873,1,0,1.309.68,1.309,2.873ZM3.519,0H6.137V-12.138H4.42L.833-10.659,1.649-8.67l1.87-.765Z" transform="translate(-375 1441)" fill="#fff"/>
    <path id="パス_35" data-name="パス 35" d="M-27.135-8.64V-9.825h9.18V-8.64H-21.69v-.855h-1.785v.855ZM-15.9-2.37V-3.915h-5.925a5.093,5.093,0,0,0,.12-.945h4.095V-6.3h-4.08v-.9h4.38v-.99h1.2v-3.2H-21.6v-1.3h-1.83v1.3h-5.475v3.2h1.335v.99h4.1v.9H-27.33v1.44h3.84a6.875,6.875,0,0,1-.15.945h-5.385V-2.37h4.515c-.825.885-2.265,1.665-4.785,2.235a7.279,7.279,0,0,1,1.11,1.44c3.06-.825,4.725-2.01,5.61-3.345C-21.39-.18-19.6.885-16.755,1.335A6.94,6.94,0,0,1-15.7-.225c-2.37-.255-4.05-.945-5.115-2.145Zm3.6-8.265h1.83V-8.7H-12.3ZM-8.625-2.25c-.555.135-1.125.27-1.695.39V-3.885h1.65V-5.43h-1.65V-7.2h1.44v-4.935H-13.8V-7.2h1.92v5.7l-.6.135v-4.77h-1.41V-1.08l-.66.135L-14.2.705c1.6-.39,3.75-.9,5.76-1.425Zm6.03-2.01A7.377,7.377,0,0,1-3.78-2.97c-.12-.4-.21-.84-.315-1.32L-.48-4.665l-.18-1.5-3.675.36c-.045-.27-.075-.555-.1-.855l3.105-.315L-1.5-8.43l-3.075.3c-.015-.255-.03-.525-.045-.795l3.6-.36-.15-1.5-.72.075.66-.78a11.137,11.137,0,0,0-2.055-1.245l-.975,1.05A17.813,17.813,0,0,1-2.625-10.65l-2.055.2c-.015-.735-.015-1.485,0-2.235H-6.495c0,.81.015,1.62.045,2.415l-2.07.195.165,1.53,1.98-.195c.015.27.03.525.045.78l-1.77.18L-7.935-6.3l1.74-.18c.03.285.06.57.105.855l-2.385.24.165,1.53,2.46-.255A15.754,15.754,0,0,0-5.3-1.905,15.768,15.768,0,0,1-9.21-.315,5.72,5.72,0,0,1-8.16,1.17,18.5,18.5,0,0,0-4.65-.39a2.761,2.761,0,0,0,2.355,1.7c1.23,0,1.71-.51,2.01-2.505A4.187,4.187,0,0,1-1.6-2.16c-.09,1.32-.24,1.725-.54,1.725-.39,0-.735-.345-1.05-.945a10.9,10.9,0,0,0,2.115-2.2ZM2.76-1.815v-2.94H5.145v2.94ZM5.145-6.3H2.76V-8.73H5.145Zm4.77-4.1c.225-.63.42-1.26.585-1.905l-1.71-.39A15.515,15.515,0,0,1,6.765-7.86v-2.43H4.44c.255-.645.525-1.395.78-2.145l-1.95-.27a16.088,16.088,0,0,1-.435,2.415H1.14V.855H2.76V-.24H6.765V-7.245a11.141,11.141,0,0,1,1.155.84,12.94,12.94,0,0,0,1.32-2.37h3.21c-.165,5.3-.36,7.545-.8,8.025A.8.8,0,0,1,11-.5c-.39,0-1.275,0-2.235-.09a4.2,4.2,0,0,1,.585,1.74,16.814,16.814,0,0,0,2.355-.03A2,2,0,0,0,13.14.3c.615-.8.78-3.18.975-9.885.015-.21.015-.81.015-.81Zm1.725,6.84a36.2,36.2,0,0,0-2.2-3.33l-1.4.8a32.1,32.1,0,0,1,2.085,3.465Zm10.44-8.52-2.07-.21A12.614,12.614,0,0,1,19.6-9.78c-.465.045-.915.06-1.365.06a18.95,18.95,0,0,1-1.995-.105l.135,1.74c.645.045,1.26.06,1.875.06.255,0,.51,0,.78-.015a23.633,23.633,0,0,1-3.06,5.295l1.815.93A27.639,27.639,0,0,0,21-8.235a26.022,26.022,0,0,0,2.625-.525l-.06-1.74a18.389,18.389,0,0,1-2.025.48C21.765-10.83,21.96-11.6,22.08-12.075ZM21.3-1.7c0-.525.555-.915,1.425-.915a5.389,5.389,0,0,1,1.215.15v.3c0,.825-.315,1.4-1.35,1.4C21.765-.765,21.3-1.14,21.3-1.7ZM25.59-7.41H23.715c.03.915.1,2.25.165,3.36-.345-.03-.675-.06-1.035-.06-2.085,0-3.315,1.125-3.315,2.6C19.53.135,21,.96,22.86.96c2.13,0,2.9-1.08,2.9-2.475v-.15A12.716,12.716,0,0,1,27.78-.06l1-1.605a9.809,9.809,0,0,0-3.1-1.92c-.03-.75-.075-1.47-.09-1.905C25.575-6.15,25.545-6.78,25.59-7.41Zm2.58.8L29.235-8.19a25.838,25.838,0,0,0-3.7-2.04l-.96,1.485A21.649,21.649,0,0,1,28.17-6.615ZM-36.8,8.97H-39a11.1,11.1,0,0,1,.1,1.38c0,.45-.015.885-.03,1.305H-41.07c-.57,0-1.35-.045-1.98-.105v1.965c.645-.06,1.47-.06,1.98-.06h1.98a8.821,8.821,0,0,1-2.475,5.34,8.938,8.938,0,0,1-1.965,1.47l1.74,1.41c2.685-1.9,4.11-4.26,4.665-8.22h3.375a20.528,20.528,0,0,1-.63,5.565.8.8,0,0,1-.855.525,12.415,12.415,0,0,1-2.1-.21l.24,2.01c.72.06,1.62.12,2.475.12a1.847,1.847,0,0,0,1.935-1.155c.645-1.53.825-5.715.885-7.335a6.132,6.132,0,0,1,.1-.795L-33,11.55a6.972,6.972,0,0,1-1.125.105h-2.82c.03-.435.045-.885.06-1.35C-36.87,9.945-36.84,9.315-36.8,8.97Zm19.065.39H-20a10.581,10.581,0,0,1,.09,1.5v2.85c0,2.34-.2,3.465-1.23,4.59a6.786,6.786,0,0,1-3.6,1.89l1.56,1.65a8.832,8.832,0,0,0,3.645-2.16c1.11-1.23,1.74-2.625,1.74-5.85V10.86C-17.79,10.26-17.76,9.78-17.73,9.36Zm-6.96.12h-2.16a10.65,10.65,0,0,1,.06,1.155V15.69c0,.45-.06,1.035-.075,1.32h2.175c-.03-.345-.045-.93-.045-1.305v-5.07C-24.735,10.155-24.72,9.825-24.69,9.48Zm15.375.81c.045.24.15.735.27,1.365-1.29.21-2.445.375-2.97.435-.465.06-.915.09-1.4.105l.405,2.07c.51-.135.9-.21,1.38-.315.465-.075,1.62-.27,2.94-.48.135.765.3,1.605.45,2.415-1.515.24-2.91.465-3.6.555-.48.06-1.155.15-1.56.165l.42,2.01c.345-.09.855-.195,1.5-.315s2.055-.36,3.585-.615c.24,1.26.435,2.3.51,2.73s.135.96.21,1.515l2.16-.39c-.135-.48-.285-1.02-.39-1.47-.09-.465-.3-1.47-.54-2.7,1.32-.21,2.535-.4,3.255-.525.57-.09,1.185-.195,1.59-.225L-1.5,14.64c-.39.12-.945.24-1.53.36-.675.135-1.905.345-3.255.57-.165-.825-.315-1.65-.465-2.4,1.245-.2,2.385-.375,3-.48.45-.06,1.05-.15,1.38-.18l-.36-1.965c-.36.1-.93.225-1.41.315-.54.105-1.68.285-2.955.5-.12-.675-.21-1.17-.24-1.38-.075-.36-.12-.87-.165-1.17l-2.115.345C-9.51,9.51-9.405,9.855-9.315,10.29ZM11.61,13.845l-1.455-.7a3.4,3.4,0,0,1-1.11.165H5.2c-.405,0-1.1-.045-1.485-.09v1.98c.435-.03,1.02-.075,1.5-.075H9.27c-.045.84-.375,2.97-.585,4.245H3.825A14.41,14.41,0,0,1,2.34,19.29v1.95c.57-.03.945-.045,1.485-.045h7.89c.4,0,1.14.03,1.44.045V19.305c-.39.045-1.08.06-1.47.06h-.96c.225-1.425.615-4.005.735-4.89A4.181,4.181,0,0,1,11.61,13.845Zm6.96-4.35V11.43c.435-.03,1.08-.045,1.56-.045h5.745c.54,0,1.245.015,1.65.045V9.495a14.142,14.142,0,0,1-1.62.075H20.13A12.644,12.644,0,0,1,18.57,9.495Zm10.215,4.35L27.45,13.02a3.164,3.164,0,0,1-1.095.15H18.93c-.465,0-1.11-.045-1.74-.09v1.95c.63-.06,1.38-.075,1.74-.075h7.245A6.508,6.508,0,0,1,24.63,17.55a10.118,10.118,0,0,1-5.19,2.625l1.485,1.7a11.232,11.232,0,0,0,5.355-3.24,10.78,10.78,0,0,0,2.22-4.155A5.557,5.557,0,0,1,28.785,13.845ZM38.1,9.69l-2.385-.5a10.916,10.916,0,0,1-.36,1.74c-.435,1.56-1.725,5.67-2.6,7.89-.135,0-.285.015-.4.015-.5.015-1.14.015-1.65.015l.345,2.19c.48-.06,1.035-.135,1.41-.18,1.89-.195,6.435-.675,8.865-.96.285.645.525,1.26.72,1.77l2.025-.9a46.133,46.133,0,0,0-3.285-6.24L38.91,15.3a18.131,18.131,0,0,1,1.575,2.745c-1.515.18-3.645.42-5.475.6.75-2.01,1.965-5.82,2.445-7.29C37.68,10.695,37.905,10.14,38.1,9.69Z" transform="translate(-312 1455)" fill="#0a2451"/>
    <g id="文章付きのノートアイコン素材3" transform="translate(-350.513 1445.25)">
      <path id="パス_13" data-name="パス 13" d="M89.016,138.656v1.873h5.419a26.367,26.367,0,0,1,11.49,2.705v-2.059a28.087,28.087,0,0,0-11.49-2.519Z" transform="translate(-76.667 -77.434)" fill="#008485"/>
      <path id="パス_14" data-name="パス 14" d="M89.016,192.953v1.873h5.419a26.246,26.246,0,0,1,11.49,2.7v-2.068a28.078,28.078,0,0,0-11.49-2.508Z" transform="translate(-76.667 -124.199)" fill="#008485"/>
      <path id="パス_15" data-name="パス 15" d="M89.016,247.188v1.873h5.419a26.282,26.282,0,0,1,11.49,2.712v-2.066a28.19,28.19,0,0,0-11.49-2.519Z" transform="translate(-76.667 -170.91)" fill="#008485"/>
      <path id="パス_16" data-name="パス 16" d="M301.109,304.068v2.07a26.286,26.286,0,0,1,11.482-2.707h5.428v-1.868h-5.428A28.2,28.2,0,0,0,301.109,304.068Z" transform="translate(-259.338 -217.741)" fill="#008485"/>
      <path id="パス_17" data-name="パス 17" d="M89.016,301.484v1.871h5.419a26.338,26.338,0,0,1,11.49,2.707v-2.07a28.217,28.217,0,0,0-11.49-2.508Z" transform="translate(-76.667 -217.674)" fill="#008485"/>
      <path id="パス_18" data-name="パス 18" d="M68.447,48.75H54.921a31.155,31.155,0,0,0-11.878,2.434,27.38,27.38,0,0,0-7.532,4.628,27.556,27.556,0,0,0-7.53-4.628A31.139,31.139,0,0,0,16.1,48.75H2.577A2.58,2.58,0,0,0,0,51.327V96.464a2.58,2.58,0,0,0,2.577,2.577H16.1a25.734,25.734,0,0,1,9.724,2,22.147,22.147,0,0,1,7.307,4.875l.316.338h4.127l.314-.338a22.219,22.219,0,0,1,7.3-4.875,25.422,25.422,0,0,1,9.73-2H68.447a2.581,2.581,0,0,0,2.579-2.577V51.327A2.581,2.581,0,0,0,68.447,48.75Zm-34,51.542a26.611,26.611,0,0,0-6.13-3.639,28.969,28.969,0,0,0-11.23-2.343H5.662V52.751H17.087a25.629,25.629,0,0,1,9.925,2.087,21.533,21.533,0,0,1,7.435,5.083Zm30.918-5.972H53.937a28.937,28.937,0,0,0-11.228,2.343,26.582,26.582,0,0,0-6.13,3.628V59.93a21.545,21.545,0,0,1,7.426-5.081,25.656,25.656,0,0,1,9.932-2.09H65.365V94.321Z" transform="translate(0 0)" fill="#008485"/>
      <path id="パス_19" data-name="パス 19" d="M301.109,141.251v2.059a26.316,26.316,0,0,1,11.482-2.705h5.428v-1.871h-5.428A28.066,28.066,0,0,0,301.109,141.251Z" transform="translate(-259.338 -77.502)" fill="#008485"/>
      <path id="パス_20" data-name="パス 20" d="M301.109,195.538v2.07a26.166,26.166,0,0,1,11.482-2.705h5.428v-1.871h-5.428A28.057,28.057,0,0,0,301.109,195.538Z" transform="translate(-259.338 -124.267)" fill="#008485"/>
      <path id="パス_21" data-name="パス 21" d="M301.109,249.768v2.068a26.2,26.2,0,0,1,11.482-2.714h5.428v-1.873h-5.428A28.249,28.249,0,0,0,301.109,249.768Z" transform="translate(-259.338 -170.963)" fill="#008485"/>
    </g>
  </g>
</svg>
